<svg width="100" height="100" viewBox="0 0 100 100" fill="none" xmlns="http://www.w3.org/2000/svg">
<g clip-path="url(#clip0_59_2)">
<path d="M9.70905 85.4718C12.5007 88.5651 15.124 91.4868 16.2524 96.1668C16.7626 98.3952 18.7364 99.9814 21.0224 100H48.979C51.265 99.9814 53.2388 98.3952 53.749 96.1668C54.8774 91.4868 57.5074 88.5651 60.2924 85.4718C61.5544 84.114 62.747 82.6933 63.8657 81.2151C66.7857 77.2344 68.3518 72.422 68.334 67.4851V64.6868C68.329 63.112 67.2273 61.7535 65.6874 61.4235L35.6874 55.1085C35.2347 55.0118 34.7667 55.0118 34.314 55.1085L6.66738 60.9285V45.0001H41.9007C42.8212 45.0001 43.5674 44.254 43.5674 43.3335C43.5674 42.413 42.8212 41.6668 41.9007 41.6668H5.00071H4.70071L3.70071 36.6668H39.0007C39.9212 36.6668 40.6674 35.9206 40.6674 35.0001C40.6674 34.0797 39.9212 33.3335 39.0007 33.3335H7.69405L9.13571 30.4401C9.46666 29.7776 10.0076 29.2431 10.674 28.9201C15.0461 27.0423 19.7003 25.9056 24.4457 25.5568C24.5226 25.5486 24.5989 25.5353 24.674 25.5168C28.1048 25.1627 31.5518 24.9902 35.0007 25.0001C36.259 25.0001 37.469 25.0151 38.6307 25.0651C39.5512 25.1043 40.3291 24.3898 40.3682 23.4693C40.4073 22.5488 39.6929 21.7709 38.7724 21.7318C37.5657 21.6835 36.309 21.6668 35.0007 21.6668C32.1074 21.6668 29.3107 21.7735 26.6574 21.9851L27.834 18.4518C27.9764 17.9812 28.334 17.6062 28.7974 17.4418C30.8094 16.8487 32.9046 16.5869 35.0007 16.6668C36.827 16.6225 38.6516 16.8062 40.4324 17.2135C41.3146 17.4209 42.2009 16.8853 42.4276 16.0078C42.6542 15.1303 42.1381 14.2325 41.2657 13.9868C39.2123 13.5114 37.108 13.2919 35.0007 13.3335C32.5398 13.2573 30.0826 13.5786 27.724 14.2851C26.2713 14.7868 25.1392 15.9425 24.6674 17.4051L23.0107 22.3768C18.2561 22.8131 13.6022 24.0082 9.22571 25.9168C7.90073 26.5597 6.82548 27.6226 6.16738 28.9401L3.96905 33.3335H3.70071C2.70816 33.3325 1.76746 33.7766 1.13738 34.5435C0.494932 35.3202 0.236585 36.345 0.434045 37.3335L1.43404 42.3335C1.65035 43.3806 2.35751 44.2596 3.33404 44.6951V61.8085C2.30705 62.4042 1.67276 63.4996 1.66738 64.6868V67.4851C1.6496 72.422 3.21576 77.2344 6.13571 81.2151C7.2544 82.6933 8.44703 84.114 9.70905 85.4718ZM5.00071 64.6868L33.334 58.7201V83.3335C33.334 84.254 34.0802 85.0001 35.0007 85.0001C35.9212 85.0001 36.6674 84.254 36.6674 83.3335V58.7201L65.0007 64.6868V67.4851C65.0173 71.7132 63.6772 75.8351 61.1774 79.2451C60.1246 80.6345 59.002 81.9695 57.814 83.2451C54.8757 86.5001 51.834 89.8851 50.5007 95.3851C50.3497 96.1148 49.7172 96.6452 48.9724 96.6668H21.0224C20.277 96.645 19.6444 96.1138 19.494 95.3835C18.1607 89.8835 15.1257 86.5068 12.1874 83.2418C10.9994 81.9662 9.87685 80.6311 8.82405 79.2418C6.32494 75.8327 4.98488 71.7121 5.00071 67.4851V64.6868Z" fill="#0F4654"/>
<path d="M33.3346 48.3335C32.4142 48.3335 31.668 49.0797 31.668 50.0002C31.668 50.9206 32.4142 51.6668 33.3346 51.6668H36.668C37.5884 51.6668 38.3346 50.9206 38.3346 50.0002C38.3346 49.0797 37.5884 48.3335 36.668 48.3335H33.3346Z" fill="#0F4654"/>
<path d="M23.3346 48.3335C22.4142 48.3335 21.668 49.0797 21.668 50.0002C21.668 50.9206 22.4142 51.6668 23.3346 51.6668H26.668C27.5884 51.6668 28.3346 50.9206 28.3346 50.0002C28.3346 49.0797 27.5884 48.3335 26.668 48.3335H23.3346Z" fill="#0F4654"/>
<path d="M13.3346 48.3335C12.4142 48.3335 11.668 49.0797 11.668 50.0002C11.668 50.9206 12.4142 51.6668 13.3346 51.6668H16.668C17.5884 51.6668 18.3346 50.9206 18.3346 50.0002C18.3346 49.0797 17.5884 48.3335 16.668 48.3335H13.3346Z" fill="#0F4654"/>
<path d="M43.3346 48.3335C42.4142 48.3335 41.668 49.0797 41.668 50.0002C41.668 50.9206 42.4142 51.6668 43.3346 51.6668H46.668C47.5884 51.6668 48.3346 50.9206 48.3346 50.0002C48.3346 49.0797 47.5884 48.3335 46.668 48.3335H43.3346Z" fill="#0F4654"/>
<path d="M19.1673 80.0002C22.389 80.0002 25.0007 77.3885 25.0007 74.1668C25.0007 70.9452 22.389 68.3335 19.1673 68.3335C15.9457 68.3335 13.334 70.9452 13.334 74.1668C13.334 77.3885 15.9457 80.0002 19.1673 80.0002ZM19.1673 71.6668C20.548 71.6668 21.6673 72.7861 21.6673 74.1668C21.6673 75.5475 20.548 76.6668 19.1673 76.6668C17.7866 76.6668 16.6673 75.5475 16.6673 74.1668C16.6673 72.7861 17.7866 71.6668 19.1673 71.6668Z" fill="#0F4654"/>
<path d="M50.8333 80.0002C54.055 80.0002 56.6667 77.3885 56.6667 74.1668C56.6667 70.9452 54.055 68.3335 50.8333 68.3335C47.6117 68.3335 45 70.9452 45 74.1668C45 77.3885 47.6117 80.0002 50.8333 80.0002ZM50.8333 71.6668C52.214 71.6668 53.3333 72.7861 53.3333 74.1668C53.3333 75.5475 52.214 76.6668 50.8333 76.6668C49.4526 76.6668 48.3333 75.5475 48.3333 74.1668C48.3333 72.7861 49.4526 71.6668 50.8333 71.6668Z" fill="#0F4654"/>
<path d="M71.6668 9.87652e-05C60.2069 -0.000150285 49.8752 6.90305 45.4896 17.4907C41.1041 28.0783 43.5283 40.2651 51.6318 48.3684C62.6968 59.4335 80.6368 59.4335 91.7018 48.3684C102.767 37.3034 102.767 19.3635 91.7018 8.29843C86.3993 2.96822 79.1852 -0.0198012 71.6668 9.87652e-05ZM89.3435 46.0101C83.0511 52.438 73.7906 54.9899 65.0938 52.6927C56.397 50.3955 49.6048 43.6032 47.3075 34.9064C45.0103 26.2096 47.5623 16.9491 53.9901 10.6568C60.2825 4.22888 69.543 1.67693 78.2398 3.97417C86.9366 6.27141 93.7288 13.0636 96.0261 21.7604C98.3233 30.4572 95.7714 39.7177 89.3435 46.0101Z" fill="#0F4654"/>
<path d="M64.5949 42.475L85.8083 21.2617C87.0884 20.0019 87.5945 18.1524 87.1342 16.4163C86.6739 14.6803 85.3178 13.3245 83.5816 12.8646C81.8455 12.4047 79.9961 12.9112 78.7366 14.1917L57.5233 35.405C55.598 37.3624 55.6112 40.506 57.5528 42.4472C59.4944 44.3883 62.638 44.4007 64.5949 42.475ZM59.8816 37.7617L81.0949 16.5483C81.5134 16.1151 82.1331 15.9413 82.7158 16.0938C83.2985 16.2464 83.7536 16.7014 83.9061 17.2842C84.0586 17.8669 83.8849 18.4865 83.4516 18.905L62.2383 40.1183C61.5843 40.75 60.5448 40.7409 59.9019 40.098C59.259 39.4551 59.25 38.4156 59.8816 37.7617Z" fill="#0F4654"/>
<path d="M61.6674 25.0002C64.3634 24.9996 66.7936 23.3753 67.8252 20.8845C68.8569 18.3937 68.2868 15.5268 66.3807 13.6202C63.7438 11.0999 59.5909 11.0999 56.9541 13.6202C55.048 15.5268 54.4779 18.3937 55.5095 20.8845C56.5412 23.3753 58.9714 24.9996 61.6674 25.0002ZM59.3107 15.9768C60.1476 15.1103 61.387 14.7628 62.5524 15.0678C63.7178 15.3729 64.628 16.283 64.933 17.4485C65.2381 18.6139 64.8906 19.8532 64.0241 20.6902C62.7055 21.9498 60.6293 21.9498 59.3107 20.6902C58.0095 19.3885 58.0095 17.2785 59.3107 15.9768Z" fill="#0F4654"/>
<path d="M76.9535 33.6202C75.0465 35.5266 74.4757 38.3943 75.5075 40.8857C76.5392 43.3771 78.9703 45.0016 81.6669 45.0016C84.3635 45.0016 86.7945 43.3771 87.8262 40.8857C88.858 38.3943 88.2873 35.5266 86.3802 33.6202C83.7433 31.0999 79.5904 31.0999 76.9535 33.6202ZM84.0235 40.6902C82.7049 41.9498 80.6288 41.9498 79.3102 40.6902C78.3567 39.7369 78.0713 38.3031 78.5872 37.0574C79.103 35.8117 80.3186 34.9994 81.6669 34.9994C83.0152 34.9994 84.2307 35.8117 84.7466 37.0574C85.2624 38.3031 84.9771 39.7369 84.0235 40.6902Z" fill="#0F4654"/>
</g>
<defs>
<clipPath id="clip0_59_2">
<rect width="100" height="100" fill="white"/>
</clipPath>
</defs>
</svg>
