<svg width="100" height="100" viewBox="0 0 100 100" fill="none" xmlns="http://www.w3.org/2000/svg">
<g clip-path="url(#clip0_59_97)">
<path d="M9.49928 54.0201L8.62928 58.3684C6.65105 58.5398 4.96319 59.8689 4.33262 61.7518L0.0842824 74.4734C0.0267481 74.7919 0.0177573 75.1173 0.0576157 75.4384L4.39095 91.3168C4.98841 93.4882 6.96051 94.9947 9.21262 95.0001H57.7659C60.621 94.9885 63.1537 93.1654 64.071 90.4618C66.1226 84.4884 71.1759 79.9618 74.0059 77.7951C74.8511 77.1407 75.1867 76.0213 74.841 75.0099C74.4953 73.9985 73.5448 73.3187 72.4759 73.3184H70.8093L62.1576 62.1951C60.2681 59.7493 57.3482 58.322 54.2576 58.3334H54.0226L47.6426 51.9534C46.3952 50.6983 44.6972 49.9949 42.9276 50.0001H34.1326L28.9659 43.5418C28.0192 42.3546 26.5827 41.6643 25.0643 41.6668H23.3326C20.5712 41.6668 18.3326 43.9053 18.3326 46.6668V50.0001H14.3993C12.0184 50.0061 9.97038 51.6863 9.49928 54.0201ZM7.49928 62.8068C7.7245 62.1305 8.35485 61.6723 9.06762 61.6668H44.1843L53.2493 73.3218L3.97928 73.3334L7.49928 62.8068ZM60.9193 89.3784C60.4641 90.7359 59.1977 91.655 57.7659 91.6668H9.21262C8.46083 91.6669 7.802 91.1637 7.60428 90.4384L3.84762 76.6668L56.6109 76.6534C56.6309 76.6534 56.6476 76.6668 56.6659 76.6668C56.6843 76.6668 56.7176 76.6551 56.7426 76.6534H70.1309C66.0184 80.0335 62.8459 84.4159 60.9193 89.3784ZM59.5193 64.2401L66.5793 73.3184H57.471L48.4076 61.6667L54.2576 61.6668C56.3161 61.6603 58.2606 62.6113 59.5193 64.2401ZM45.2859 54.3101L49.3093 58.3334H12.0326L12.7643 54.6668C12.9228 53.89 13.6065 53.3325 14.3993 53.3334H42.9276C43.8126 53.3308 44.6619 53.6825 45.2859 54.3101ZM21.6659 46.6668C21.6659 45.7463 22.4121 45.0001 23.3326 45.0001H25.0643C25.5706 44.9999 26.0495 45.2299 26.3659 45.6251L29.8659 50.0001H21.6659V46.6668Z" fill="#0F4654"/>
<path d="M58.3327 80H53.3327C52.4122 80 51.666 80.7462 51.666 81.6667C51.666 82.5871 52.4122 83.3333 53.3327 83.3333H58.3327C59.2532 83.3333 59.9993 82.5871 59.9993 81.6667C59.9993 80.7462 59.2532 80 58.3327 80Z" fill="#0F4654"/>
<path d="M9.9987 70.0001H13.332C14.2525 70.0001 14.9987 69.2539 14.9987 68.3334C14.9987 67.4129 14.2525 66.6667 13.332 66.6667H9.9987C9.07822 66.6667 8.33203 67.4129 8.33203 68.3334C8.33203 69.2539 9.07822 70.0001 9.9987 70.0001Z" fill="#0F4654"/>
<path d="M19.9987 70.0001H23.332C24.2525 70.0001 24.9987 69.2539 24.9987 68.3334C24.9987 67.4129 24.2525 66.6667 23.332 66.6667H19.9987C19.0782 66.6667 18.332 67.4129 18.332 68.3334C18.332 69.2539 19.0782 70.0001 19.9987 70.0001Z" fill="#0F4654"/>
<path d="M29.9987 70.0001H33.332C34.2525 70.0001 34.9987 69.2539 34.9987 68.3334C34.9987 67.4129 34.2525 66.6667 33.332 66.6667H29.9987C29.0782 66.6667 28.332 67.4129 28.332 68.3334C28.332 69.2539 29.0782 70.0001 29.9987 70.0001Z" fill="#0F4654"/>
<path d="M39.9987 70.0001H43.332C44.2525 70.0001 44.9987 69.2539 44.9987 68.3334C44.9987 67.4129 44.2525 66.6667 43.332 66.6667H39.9987C39.0782 66.6667 38.332 67.4129 38.332 68.3334C38.332 69.2539 39.0782 70.0001 39.9987 70.0001Z" fill="#0F4654"/>
<path d="M34.9987 38.3333H51.6654C52.5858 38.3333 53.332 37.5871 53.332 36.6667C53.332 35.7462 52.5858 35 51.6654 35H34.9987C27.6383 34.9917 21.6736 29.027 21.6654 21.6667C21.6791 14.3086 27.6406 8.34709 34.9987 8.33333H83.332C90.6924 8.3416 96.6571 14.3063 96.6654 21.6667C96.6516 29.0248 90.6901 34.9862 83.332 35C82.4116 35 81.6654 35.7462 81.6654 36.6667C81.6654 37.5871 82.4116 38.3333 83.332 38.3333C92.5307 38.3187 99.984 30.8653 99.9987 21.6667C99.9886 12.4661 92.5326 5.0101 83.332 5H34.9987C25.8 5.01468 18.3467 12.468 18.332 21.6667C18.3421 30.8672 25.7981 38.3232 34.9987 38.3333Z" fill="#0F4654"/>
<path d="M43.3327 17.5001C43.3327 14.2784 40.721 11.6667 37.4993 11.6667H33.3327C32.4122 11.6667 31.666 12.4129 31.666 13.3334V30.0001C31.666 30.9206 32.4122 31.6667 33.3327 31.6667H37.4993C39.8713 31.67 42.0084 30.2346 42.9026 28.0376C43.7968 25.8406 43.2695 23.3208 41.5693 21.6667C42.6961 20.5733 43.3322 19.0702 43.3327 17.5001ZM39.9993 25.8334C39.9993 27.2141 38.8801 28.3334 37.4993 28.3334H34.9993V23.3334H37.4993C38.8801 23.3334 39.9993 24.4527 39.9993 25.8334ZM34.9993 20.0001V15.0001H37.4993C38.8801 15.0001 39.9993 16.1194 39.9993 17.5001C39.9993 18.8808 38.8801 20.0001 37.4993 20.0001H34.9993Z" fill="#0F4654"/>
<path d="M58.3327 17.5001C58.3327 14.2784 55.721 11.6667 52.4993 11.6667C49.2777 11.6667 46.666 14.2784 46.666 17.5001V25.8334C46.666 29.0551 49.2777 31.6668 52.4993 31.6668C55.721 31.6668 58.3327 29.0551 58.3327 25.8334V17.5001ZM54.9993 25.8334C54.9993 27.2141 53.8801 28.3334 52.4993 28.3334C51.1186 28.3334 49.9993 27.2141 49.9993 25.8334V17.5001C49.9993 16.1194 51.1186 15.0001 52.4993 15.0001C53.8801 15.0001 54.9993 16.1194 54.9993 17.5001V25.8334Z" fill="#0F4654"/>
<path d="M73.3327 25.8334V17.5001C73.3327 14.2784 70.721 11.6667 67.4993 11.6667C64.2777 11.6667 61.666 14.2784 61.666 17.5001V25.8334C61.666 29.0551 64.2777 31.6668 67.4993 31.6668C70.721 31.6668 73.3327 29.0551 73.3327 25.8334ZM64.9993 25.8334V17.5001C64.9993 16.1194 66.1186 15.0001 67.4993 15.0001C68.8801 15.0001 69.9993 16.1194 69.9993 17.5001V25.8334C69.9993 27.2141 68.8801 28.3334 67.4993 28.3334C66.1186 28.3334 64.9993 27.2141 64.9993 25.8334Z" fill="#0F4654"/>
<path d="M79.9993 30.0001V13.3334C79.9993 12.4129 79.2532 11.6667 78.3327 11.6667C77.4122 11.6667 76.666 12.4129 76.666 13.3334V30.0001C76.666 30.9206 77.4122 31.6668 78.3327 31.6668C79.2532 31.6668 79.9993 30.9206 79.9993 30.0001Z" fill="#0F4654"/>
<path d="M87.5247 11.905C86.7358 11.4311 85.7122 11.6862 85.238 12.475L80.238 20.8083C79.9207 21.3365 79.9207 21.9967 80.238 22.525L85.238 30.8583C85.539 31.3803 86.0984 31.6992 86.701 31.6923C87.3036 31.6854 87.8555 31.3537 88.1444 30.8249C88.4334 30.2961 88.4144 29.6525 88.0947 29.1416L83.6097 21.6666L88.0947 14.1916C88.5686 13.4028 88.3134 12.3791 87.5247 11.905Z" fill="#0F4654"/>
<path d="M63.6364 54.9466C64.6679 55.2768 65.7963 55.0636 66.6364 54.38L69.4997 52.055L75.4564 58.8883C76.0473 59.5642 76.8924 59.9643 77.7897 59.9933H77.8847C78.747 59.9926 79.5731 59.6462 80.178 59.0316L82.3897 56.7916C83.5776 55.5763 83.6399 53.6546 82.533 52.365L76.9997 45.965L78.4147 44.8183C79.2895 44.1044 79.733 42.989 79.5875 41.8694C79.4419 40.7497 78.7279 39.7848 77.6997 39.3183L61.1997 31.9483C60.0631 31.4333 58.7306 31.6287 57.7897 32.4483C56.8268 33.2699 56.4315 34.5776 56.778 35.795L61.4997 52.725C61.7898 53.7795 62.5939 54.6156 63.6364 54.9466ZM60.048 35.08L76.3197 42.2366L73.5697 44.4683C73.2198 44.7526 73 45.1665 72.9604 45.6155C72.9209 46.0646 73.0649 46.5106 73.3597 46.8516L79.978 54.5L77.978 56.6966L70.963 48.645C70.3735 47.968 69.3536 47.8795 68.6564 48.445L64.6664 51.6833L60.048 35.08Z" fill="#0F4654"/>
</g>
<defs>
<clipPath id="clip0_59_97">
<rect width="100" height="100" fill="white"/>
</clipPath>
</defs>
</svg>
