<svg width="100" height="100" viewBox="0 0 100 100" fill="none" xmlns="http://www.w3.org/2000/svg">
<g clip-path="url(#clip0_59_85)">
<path d="M0 90.9266C0.0311984 95.5009 3.75896 99.1869 8.33333 99.1666H91.6667C96.2668 99.1611 99.9945 95.4333 100 90.8333V19.1666C99.9945 14.5665 96.2668 10.8388 91.6667 10.8333H86.6667V7.49992C86.6667 3.81802 83.6819 0.833252 80 0.833252C76.3181 0.833252 73.3333 3.81802 73.3333 7.49992V10.8333H66.6667V7.49992C66.6667 3.81802 63.6819 0.833252 60 0.833252C56.3181 0.833252 53.3333 3.81802 53.3333 7.49992V10.8333H46.6667V7.49992C46.6667 3.81802 43.6819 0.833252 40 0.833252C36.3181 0.833252 33.3333 3.81802 33.3333 7.49992V10.8333H26.6667V7.49992C26.6667 3.81802 23.6819 0.833252 20 0.833252C16.3181 0.833252 13.3333 3.81802 13.3333 7.49992V10.8333H8.33333C3.73324 10.8388 0.0055102 14.5665 0 19.1666V29.1666C0.013405 29.1963 0.013405 29.2303 0 29.2599V90.9266ZM96.6667 90.8333C96.6667 93.5947 94.4281 95.8333 91.6667 95.8333H8.33333C5.59912 95.8555 3.36264 93.6607 3.33333 90.9266V30.9266L96.6667 30.8333V90.8333ZM76.6667 7.49992C76.6667 5.65897 78.159 4.16659 80 4.16659C81.8409 4.16659 83.3333 5.65897 83.3333 7.49992V17.4999C83.3333 19.3409 81.8409 20.8333 80 20.8333C78.159 20.8333 76.6667 19.3409 76.6667 17.4999V7.49992ZM56.6667 7.49992C56.6667 5.65897 58.159 4.16659 60 4.16659C61.8409 4.16659 63.3333 5.65897 63.3333 7.49992V17.4999C63.3333 19.3409 61.8409 20.8333 60 20.8333C58.159 20.8333 56.6667 19.3409 56.6667 17.4999V7.49992ZM36.6667 7.49992C36.6667 5.65897 38.159 4.16659 40 4.16659C41.8409 4.16659 43.3333 5.65897 43.3333 7.49992V17.4999C43.3333 19.3409 41.8409 20.8333 40 20.8333C38.159 20.8333 36.6667 19.3409 36.6667 17.4999V7.49992ZM16.6667 7.49992C16.6667 5.65897 18.1591 4.16659 20 4.16659C21.8409 4.16659 23.3333 5.65897 23.3333 7.49992V17.4999C23.3333 19.3409 21.8409 20.8333 20 20.8333C18.1591 20.8333 16.6667 19.3409 16.6667 17.4999V7.49992ZM3.33333 19.1666C3.33333 16.4052 5.57191 14.1666 8.33333 14.1666H13.3333V17.4999C13.3333 21.1818 16.3181 24.1666 20 24.1666C23.6819 24.1666 26.6667 21.1818 26.6667 17.4999V14.1666H33.3333V17.4999C33.3333 21.1818 36.3181 24.1666 40 24.1666C43.6819 24.1666 46.6667 21.1818 46.6667 17.4999V14.1666H53.3333V17.4999C53.3333 21.1818 56.3181 24.1666 60 24.1666C63.6819 24.1666 66.6667 21.1818 66.6667 17.4999V14.1666H73.3333V17.4999C73.3333 21.1818 76.3181 24.1666 80 24.1666C83.6819 24.1666 86.6667 21.1818 86.6667 17.4999V14.1666H91.6667C94.4281 14.1666 96.6667 16.4052 96.6667 19.1666V27.4999H3.33333V19.1666Z" fill="#0F4654"/>
<path d="M13.3327 89.1665H9.99935V85.8332C9.99935 84.9127 9.25316 84.1665 8.33268 84.1665C7.41221 84.1665 6.66602 84.9127 6.66602 85.8332V90.8332C6.66602 91.7536 7.41221 92.4998 8.33268 92.4998H13.3327C14.2532 92.4998 14.9993 91.7536 14.9993 90.8332C14.9993 89.9127 14.2532 89.1665 13.3327 89.1665Z" fill="#0F4654"/>
<path d="M91.6667 84.1665C90.7462 84.1665 90 84.9127 90 85.8332V89.1665H86.6667C85.7462 89.1665 85 89.9127 85 90.8332C85 91.7536 85.7462 92.4998 86.6667 92.4998H91.6667C92.5871 92.4998 93.3333 91.7536 93.3333 90.8332V85.8332C93.3333 84.9127 92.5871 84.1665 91.6667 84.1665Z" fill="#0F4654"/>
<path d="M88.1809 67.5182C87.8379 66.5004 86.8833 65.8154 85.8092 65.8165H84.1426L75.4909 54.6932C73.6011 52.2481 70.6812 50.8214 67.5909 50.8332H67.3559L60.9759 44.4532C59.7285 43.1981 58.0305 42.4946 56.2609 42.4998H47.4659L42.2992 36.0415C41.3525 34.8544 39.916 34.164 38.3976 34.1665H36.6659C33.9045 34.1665 31.6659 36.4051 31.6659 39.1665V42.4998H27.7326C25.3517 42.5058 23.3037 44.186 22.8326 46.5198L21.9626 50.8682C19.9825 51.0377 18.2922 52.3671 17.6609 54.2515L13.4176 66.9732C13.361 67.2918 13.352 67.617 13.3909 67.9382L17.7242 83.8165C18.3229 85.9921 20.3011 87.4997 22.5576 87.4998H71.0992C73.9543 87.4882 76.487 85.6652 77.4042 82.9615C79.4559 76.9882 84.5092 72.4615 87.3392 70.2948C88.1867 69.6458 88.5254 68.5285 88.1809 67.5182ZM72.8476 56.7398L79.9076 65.8182H70.8042L61.7409 54.1665L67.5909 54.1665C69.6494 54.16 71.5939 55.111 72.8526 56.7398H72.8476ZM34.9992 39.1665C34.9992 38.246 35.7454 37.4998 36.6659 37.4998H38.3976C38.9039 37.4997 39.3828 37.7296 39.6992 38.1248L43.1992 42.4998H34.9992V39.1665ZM26.0976 47.1665C26.2561 46.3898 26.9398 45.8322 27.7326 45.8332H56.2609C57.1459 45.8305 57.9952 46.1822 58.6192 46.8098L62.6426 50.8332H25.3659L26.0976 47.1665ZM20.8209 55.2998C21.0498 54.6222 21.6856 54.1661 22.4009 54.1665H57.5176L66.5826 65.8215L17.3126 65.8332L20.8209 55.2998ZM74.2526 81.8782C73.7974 83.2357 72.531 84.1547 71.0992 84.1665H22.5459C21.7941 84.1667 21.1353 83.6635 20.9376 82.9382L17.1809 69.1665L69.9442 69.1532C69.9642 69.1532 69.9809 69.1665 69.9992 69.1665C70.0176 69.1665 70.0509 69.1548 70.0759 69.1532H83.4642C79.3517 72.5332 76.1792 76.9157 74.2526 81.8782Z" fill="#0F4654"/>
<path d="M71.6667 72.5H66.6667C65.7462 72.5 65 73.2462 65 74.1667C65 75.0871 65.7462 75.8333 66.6667 75.8333H71.6667C72.5871 75.8333 73.3333 75.0871 73.3333 74.1667C73.3333 73.2462 72.5871 72.5 71.6667 72.5Z" fill="#0F4654"/>
<path d="M23.3327 62.4998H26.666C27.5865 62.4998 28.3327 61.7536 28.3327 60.8332C28.3327 59.9127 27.5865 59.1665 26.666 59.1665H23.3327C22.4122 59.1665 21.666 59.9127 21.666 60.8332C21.666 61.7536 22.4122 62.4998 23.3327 62.4998Z" fill="#0F4654"/>
<path d="M33.3327 62.4998H36.666C37.5865 62.4998 38.3327 61.7536 38.3327 60.8332C38.3327 59.9127 37.5865 59.1665 36.666 59.1665H33.3327C32.4122 59.1665 31.666 59.9127 31.666 60.8332C31.666 61.7536 32.4122 62.4998 33.3327 62.4998Z" fill="#0F4654"/>
<path d="M43.3327 62.4998H46.666C47.5865 62.4998 48.3327 61.7536 48.3327 60.8332C48.3327 59.9127 47.5865 59.1665 46.666 59.1665H43.3327C42.4122 59.1665 41.666 59.9127 41.666 60.8332C41.666 61.7536 42.4122 62.4998 43.3327 62.4998Z" fill="#0F4654"/>
<path d="M53.3327 62.4998H56.666C57.5865 62.4998 58.3327 61.7536 58.3327 60.8332C58.3327 59.9127 57.5865 59.1665 56.666 59.1665H53.3327C52.4122 59.1665 51.666 59.9127 51.666 60.8332C51.666 61.7536 52.4122 62.4998 53.3327 62.4998Z" fill="#0F4654"/>
</g>
<defs>
<clipPath id="clip0_59_85">
<rect width="100" height="100" fill="white"/>
</clipPath>
</defs>
</svg>
