<svg width="60" height="60" viewBox="0 0 60 60" fill="none" xmlns="http://www.w3.org/2000/svg">
<g clip-path="url(#clip0_62_135)">
<path d="M30.0003 47.1429C46.7146 47.1429 54.6432 40.2675 54.6432 38.5715C54.6653 26.5159 45.9347 16.2265 34.0364 14.2854L34.2432 15.7372V15.7597C34.2703 15.8614 34.2847 15.9662 34.286 16.0715C34.286 17.6518 32.0725 18.2143 30.0003 18.2143C27.9282 18.2143 25.7146 17.6518 25.7146 16.0715C25.7149 15.9663 25.7282 15.8616 25.7543 15.7597V15.7372L25.961 14.2854C14.064 16.2279 5.33507 26.5169 5.35746 38.5715C5.35746 40.2675 13.286 47.1429 30.0003 47.1429ZM22.2207 17.4579C22.7739 17.2596 23.3836 17.544 23.5872 18.0952C23.7909 18.6465 23.5125 19.2589 22.9632 19.4679C15.6708 22.1865 10.5485 28.8024 9.74282 36.5433C9.68784 37.0903 9.22766 37.507 8.67782 37.5075C8.64246 37.5075 8.60711 37.5075 8.57068 37.5022C8.28718 37.4751 8.02612 37.3362 7.84519 37.1163C7.66426 36.8964 7.57833 36.6135 7.60639 36.33C8.4971 27.7738 14.1596 20.4615 22.2207 17.4579Z" fill="#0F4654"/>
<path d="M28.1922 9.08364L28.2211 9.10292C29.2976 9.82285 30.7018 9.82285 31.7783 9.10292L31.8072 9.08364C32.9739 8.29021 33.4868 6.82864 33.0717 5.48012C32.6567 4.13159 31.4107 3.21143 29.9997 3.21143C28.5887 3.21143 27.3427 4.13159 26.9276 5.48012C26.5126 6.82864 27.0254 8.29021 28.1922 9.08364Z" fill="#0F4654"/>
<path d="M30.0006 11.7859C29.4974 11.7784 28.9977 11.6994 28.5167 11.5513L27.9199 15.7502C28.5887 15.9807 29.2934 16.0895 30.0006 16.0716C30.7078 16.0896 31.4125 15.9808 32.0813 15.7502L31.4846 11.5459C31.0038 11.6958 30.5042 11.7766 30.0006 11.7859Z" fill="#0F4654"/>
<path d="M6.40039 49.92C10.4011 53.9518 19.6154 56.7857 30.0007 56.7857C40.3861 56.7857 49.6079 53.9518 53.6022 49.9189C47.7725 52.8397 39.4229 54.6429 30.0007 54.6429C20.5786 54.6429 12.23 52.8397 6.40039 49.92Z" fill="#0F4654"/>
<path d="M56.3239 33.5916C56.6312 35.2337 56.7858 36.9009 56.7857 38.5716C56.7857 42.208 47.3314 49.2858 30 49.2858C12.6686 49.2858 3.21429 42.208 3.21429 38.5716C3.2142 36.9012 3.36879 35.2345 3.67607 33.5926C1.2975 35.4644 0 37.5569 0 39.643C0 46.6126 13.7379 52.5001 30 52.5001C46.2621 52.5001 60 46.6126 60 39.643C60 37.5569 58.7025 35.4644 56.3239 33.5916Z" fill="#0F4654"/>
</g>
<defs>
<clipPath id="clip0_62_135">
<rect width="60" height="60" fill="white"/>
</clipPath>
</defs>
</svg>
