<svg width="60" height="60" viewBox="0 0 60 60" fill="none" xmlns="http://www.w3.org/2000/svg">
<g clip-path="url(#clip0_106_19)">
<path d="M35.625 3.40313V2.8125C35.6228 2.06725 35.3258 1.35314 34.7988 0.826164C34.2719 0.299188 33.5578 0.00217405 32.8125 0L27.1875 0C26.4422 0.00217405 25.7281 0.299188 25.2012 0.826164C24.6742 1.35314 24.3772 2.06725 24.375 2.8125V3.40313C28.0837 2.61563 31.9163 2.61563 35.625 3.40313Z" fill="#0F4654"/>
<path d="M7.21913 15.1781C9.29027 12.0006 12.0011 9.28983 15.1785 7.21868L14.7566 6.79681C14.2275 6.26993 13.5112 5.97412 12.7644 5.97412C12.0177 5.97412 11.3014 6.26993 10.7723 6.79681L6.79725 10.7718C6.2704 11.301 5.97461 12.0173 5.97461 12.764C5.97461 13.5107 6.2704 14.227 6.79725 14.7562L7.21913 15.1781Z" fill="#0F4654"/>
<path d="M2.8125 24.375C2.06725 24.3772 1.35314 24.6742 0.826164 25.2012C0.299188 25.7281 0.00217405 26.4422 0 27.1875L0 32.8125C0.00218389 33.5577 0.299201 34.2719 0.826175 34.7988C1.35315 35.3258 2.06725 35.6228 2.8125 35.625H3.40313C2.61563 31.9163 2.61563 28.0837 3.40313 24.375H2.8125Z" fill="#0F4654"/>
<path d="M7.21913 44.8218L6.79725 45.2436C6.2704 45.7728 5.97461 46.4891 5.97461 47.2358C5.97461 47.9826 6.2704 48.6989 6.79725 49.228L10.7723 53.203C11.3014 53.7299 12.0177 54.0257 12.7644 54.0257C13.5112 54.0257 14.2275 53.7299 14.7566 53.203L15.1785 52.7812C12.0011 50.71 9.29029 47.9992 7.21913 44.8218Z" fill="#0F4654"/>
<path d="M24.375 56.5969V57.1875C24.3772 57.9328 24.6742 58.6469 25.2012 59.1739C25.7281 59.7008 26.4423 59.9979 27.1875 60H32.8125C33.5577 59.9979 34.2719 59.7008 34.7988 59.1739C35.3258 58.6469 35.6228 57.9328 35.625 57.1875V56.5969C31.9163 57.3844 28.0837 57.3844 24.375 56.5969Z" fill="#0F4654"/>
<path d="M52.7816 44.8218C50.7105 47.9992 47.9997 50.71 44.8223 52.7812L45.2441 53.203C45.7733 53.7299 46.4896 54.0257 47.2363 54.0257C47.983 54.0257 48.6994 53.7299 49.2285 53.203L53.2035 49.228C53.7304 48.6989 54.0262 47.9826 54.0262 47.2358C54.0262 46.4891 53.7304 45.7728 53.2035 45.2436L52.7816 44.8218Z" fill="#0F4654"/>
<path d="M57.1883 24.375H56.5977C57.3852 28.0837 57.3852 31.9163 56.5977 35.625H57.1883C57.9335 35.6228 58.6476 35.3258 59.1746 34.7988C59.7016 34.2719 59.9986 33.5577 60.0008 32.8125V27.1875C59.9986 26.4422 59.7016 25.7281 59.1746 25.2012C58.6476 24.6742 57.9335 24.3772 57.1883 24.375Z" fill="#0F4654"/>
<path d="M52.7816 15.1781L53.2035 14.7562C53.7304 14.227 54.0262 13.5107 54.0262 12.764C54.0262 12.0173 53.7304 11.301 53.2035 10.7718L49.2285 6.79681C48.6994 6.26993 47.983 5.97412 47.2363 5.97412C46.4896 5.97412 45.7733 6.26993 45.2441 6.79681L44.8223 7.21868C47.9997 9.28983 50.7105 12.0006 52.7816 15.1781Z" fill="#0F4654"/>
<path d="M24.7404 23.4132L18.7681 17.4417C18.3017 17.8591 17.8588 18.302 17.4414 18.7683L23.4129 24.7407C23.805 24.2505 24.2502 23.8053 24.7404 23.4132Z" fill="#0F4654"/>
<path d="M27.1873 22.0548V13.3792C24.6826 13.8008 22.3064 14.786 20.2383 16.2604L26.3723 22.3937C26.6378 22.2665 26.9099 22.1533 27.1873 22.0548Z" fill="#0F4654"/>
<path d="M20.2383 43.7397C22.3064 45.2141 24.6826 46.1993 27.1873 46.6209V37.9454C26.9099 37.8468 26.6378 37.7337 26.3723 37.6064L20.2383 43.7397Z" fill="#0F4654"/>
<path d="M30 32.8125C31.5533 32.8125 32.8125 31.5533 32.8125 30C32.8125 28.4467 31.5533 27.1875 30 27.1875C28.4467 27.1875 27.1875 28.4467 27.1875 30C27.1875 31.5533 28.4467 32.8125 30 32.8125Z" fill="#0F4654"/>
<path d="M21.5625 30C21.5636 29.6867 21.582 29.3737 21.6178 29.0625H13.1725C13.1552 29.3747 13.125 29.6836 13.125 30C13.125 30.3164 13.1552 30.6253 13.1725 30.9375H21.6178C21.582 30.6263 21.5636 30.3133 21.5625 30Z" fill="#0F4654"/>
<path d="M22.3934 26.3725L16.2602 20.2385C14.7857 22.3067 13.8005 24.6828 13.3789 27.1875H22.0545C22.1531 26.9101 22.2662 26.638 22.3934 26.3725Z" fill="#0F4654"/>
<path d="M37.6055 33.6275L43.7387 39.7615C45.2131 37.6934 46.1984 35.3172 46.62 32.8125H37.9444C37.8458 33.0899 37.7327 33.362 37.6055 33.6275Z" fill="#0F4654"/>
<path d="M35.2598 36.5869L41.2321 42.5585C41.6984 42.1411 42.1413 41.6982 42.5587 41.2318L36.5872 35.2595C36.1951 35.7497 35.7499 36.1948 35.2598 36.5869Z" fill="#0F4654"/>
<path d="M23.413 35.2595L17.4414 41.2318C17.8588 41.6982 18.3017 42.1411 18.7681 42.5585L24.7404 36.5869C24.2503 36.1948 23.8051 35.7497 23.413 35.2595Z" fill="#0F4654"/>
<path d="M22.0545 32.8125H13.3789C13.8005 35.3172 14.7857 37.6934 16.2602 39.7615L22.3934 33.6275C22.2662 33.362 22.1531 33.0899 22.0545 32.8125Z" fill="#0F4654"/>
<path d="M30 23.4375C28.7021 23.4375 27.4333 23.8224 26.3541 24.5435C25.2749 25.2646 24.4337 26.2895 23.937 27.4886C23.4403 28.6878 23.3104 30.0073 23.5636 31.2803C23.8168 32.5533 24.4418 33.7226 25.3596 34.6404C26.2774 35.5582 27.4467 36.1832 28.7197 36.4364C29.9927 36.6896 31.3122 36.5597 32.5114 36.063C33.7105 35.5663 34.7354 34.7251 35.4565 33.6459C36.1776 32.5667 36.5625 31.2979 36.5625 30C36.5604 28.2602 35.8683 26.5922 34.6381 25.3619C33.4078 24.1317 31.7398 23.4396 30 23.4375ZM30 34.6875C29.0729 34.6875 28.1666 34.4126 27.3958 33.8975C26.6249 33.3824 26.0241 32.6504 25.6693 31.7938C25.3145 30.9373 25.2217 29.9948 25.4026 29.0855C25.5834 28.1762 26.0299 27.341 26.6854 26.6854C27.341 26.0299 28.1762 25.5834 29.0855 25.4026C29.9948 25.2217 30.9373 25.3145 31.7938 25.6693C32.6504 26.0241 33.3824 26.6249 33.8975 27.3958C34.4126 28.1666 34.6875 29.0729 34.6875 30C34.686 31.2428 34.1917 32.4342 33.313 33.313C32.4342 34.1917 31.2428 34.686 30 34.6875Z" fill="#0F4654"/>
<path d="M36.5872 24.7406L42.5587 18.7683C42.1413 18.302 41.6984 17.8591 41.2321 17.4417L35.2598 23.4132C35.7499 23.8053 36.1951 24.2505 36.5872 24.7406Z" fill="#0F4654"/>
<path d="M38.4381 30C38.437 30.3133 38.4186 30.6263 38.3828 30.9375H46.8281C46.8454 30.6253 46.8756 30.3164 46.8756 30C46.8756 29.6836 46.8454 29.3747 46.8281 29.0625H38.3828C38.4186 29.3737 38.437 29.6867 38.4381 30Z" fill="#0F4654"/>
<path d="M30.9375 21.6178V13.1725C30.6253 13.1552 30.3164 13.125 30 13.125C29.6836 13.125 29.3747 13.1552 29.0625 13.1725V21.6178C29.6853 21.5441 30.3147 21.5441 30.9375 21.6178Z" fill="#0F4654"/>
<path d="M30 4.6875C24.9937 4.6875 20.0998 6.17205 15.9371 8.95343C11.7745 11.7348 8.53015 15.6881 6.61431 20.3133C4.69847 24.9386 4.1972 30.0281 5.17388 34.9382C6.15057 39.8484 8.56136 44.3586 12.1014 47.8986C15.6414 51.4387 20.1516 53.8494 25.0618 54.8261C29.9719 55.8028 35.0614 55.3015 39.6867 53.3857C44.3119 51.4699 48.2652 48.2255 51.0466 44.0629C53.828 39.9003 55.3125 35.0063 55.3125 30C55.3049 23.2891 52.6356 16.8552 47.8902 12.1098C43.1449 7.36443 36.711 4.69513 30 4.6875ZM43.1406 12.8861C43.3001 12.6953 43.5287 12.5756 43.7763 12.5531C44.024 12.5306 44.2704 12.6072 44.4617 12.7661C44.9616 13.1836 45.4358 13.6157 45.9091 14.0891C46.3843 14.5642 46.8164 15.0385 47.2339 15.5383C47.3927 15.7295 47.4691 15.9758 47.4464 16.2233C47.4237 16.4707 47.3038 16.6991 47.1129 16.8582C46.922 17.0173 46.6758 17.0941 46.4283 17.0719C46.1808 17.0496 45.9523 16.9301 45.7929 16.7395C45.412 16.2817 45.0165 15.8487 44.5835 15.4147C44.1514 14.9835 43.7183 14.588 43.2605 14.2072C43.0696 14.0478 42.9497 13.8191 42.9273 13.5714C42.9048 13.3237 42.9815 13.0772 43.1406 12.8861ZM28.0408 7.58789C29.3442 7.46887 30.6558 7.46887 31.9592 7.58789C32.1996 7.60953 32.4223 7.723 32.5811 7.90469C32.7399 8.08638 32.8225 8.3223 32.8118 8.56337C32.8011 8.80443 32.6978 9.03207 32.5235 9.19894C32.3492 9.3658 32.1172 9.45903 31.8759 9.45922C31.8475 9.45922 31.8192 9.45829 31.7908 9.45557C30.5994 9.34753 29.4006 9.34753 28.2092 9.45557C27.9618 9.47741 27.7159 9.4002 27.5253 9.24089C27.3348 9.08157 27.2152 8.85316 27.1929 8.6058C27.1706 8.35843 27.2474 8.11232 27.4063 7.92148C27.5653 7.73064 27.7935 7.61067 28.0408 7.58789ZM12.7661 15.5383C13.1836 15.0385 13.6157 14.5642 14.089 14.0908C14.5642 13.6157 15.0384 13.1835 15.5383 12.7661C15.6329 12.6869 15.7422 12.6272 15.8598 12.5904C15.9775 12.5535 16.1013 12.5402 16.2242 12.5513C16.347 12.5623 16.4664 12.5975 16.5756 12.6547C16.6849 12.712 16.7817 12.7902 16.8607 12.8849C16.9397 12.9797 16.9992 13.089 17.0358 13.2068C17.0725 13.3245 17.0855 13.4484 17.0743 13.5712C17.063 13.694 17.0276 13.8133 16.9702 13.9225C16.9128 14.0316 16.8344 14.1283 16.7395 14.2071C16.2817 14.588 15.8487 14.9835 15.4147 15.4165C14.9835 15.8486 14.588 16.2817 14.2071 16.7394C14.1283 16.8343 14.0316 16.9127 13.9225 16.9701C13.8134 17.0276 13.694 17.0629 13.5712 17.0742C13.4484 17.0855 13.3246 17.0724 13.2068 17.0357C13.0891 16.9991 12.9797 16.9396 12.885 16.8606C12.7902 16.7817 12.712 16.6848 12.6548 16.5756C12.5975 16.4664 12.5624 16.3469 12.5513 16.2241C12.5403 16.1013 12.5536 15.9775 12.5904 15.8598C12.6273 15.7421 12.687 15.6329 12.7661 15.5383ZM9.45558 31.7908C9.47782 32.0384 9.40082 32.2848 9.2415 32.4757C9.08219 32.6666 8.8536 32.7864 8.60597 32.8088C8.57758 32.8116 8.54921 32.8125 8.52083 32.8125C8.28692 32.8122 8.06156 32.7246 7.88896 32.5667C7.71636 32.4088 7.60899 32.1922 7.5879 31.9592C7.52839 31.3028 7.50001 30.6619 7.50001 30C7.50001 29.3381 7.52839 28.6972 7.5879 28.0408C7.61068 27.7935 7.73065 27.5653 7.92149 27.4063C8.11233 27.2474 8.35844 27.1706 8.60581 27.1929C8.85317 27.2152 9.08158 27.3348 9.2409 27.5253C9.40022 27.7159 9.47743 27.9618 9.45558 28.2092C9.40156 28.8089 9.37501 29.3948 9.37501 30C9.37501 30.6052 9.40156 31.1911 9.45558 31.7908ZM16.8594 47.1139C16.7 47.3048 16.4713 47.4245 16.2237 47.447C15.976 47.4695 15.7296 47.3929 15.5383 47.2339C15.0385 46.8164 14.5642 46.3843 14.0908 45.9109C13.6157 45.4358 13.1835 44.9615 12.7661 44.4617C12.6073 44.2705 12.5309 44.0242 12.5536 43.7767C12.5763 43.5293 12.6962 43.3009 12.8871 43.1418C13.0779 42.9827 13.3242 42.9059 13.5716 42.9281C13.8191 42.9504 14.0477 43.0699 14.2071 43.2605C14.588 43.7183 14.9835 44.1513 15.4165 44.5853C15.8486 45.0165 16.2817 45.412 16.7394 45.7928C16.9304 45.9522 17.0502 46.1809 17.0727 46.4286C17.0952 46.6763 17.0185 46.9228 16.8594 47.1139ZM31.9592 52.4121C31.3028 52.4716 30.6619 52.5 30 52.5C29.3381 52.5 28.6972 52.4716 28.0408 52.4121C27.7935 52.3893 27.5653 52.2694 27.4063 52.0785C27.2474 51.8877 27.1706 51.6416 27.1929 51.3942C27.2152 51.1468 27.3348 50.9184 27.5253 50.7591C27.7159 50.5998 27.9618 50.5226 28.2092 50.5444C29.4006 50.6525 30.5994 50.6525 31.7908 50.5444C32.0382 50.5226 32.2842 50.5998 32.4747 50.7591C32.6652 50.9184 32.7848 51.1468 32.8071 51.3942C32.8294 51.6416 32.7527 51.8877 32.5937 52.0785C32.4347 52.2694 32.2066 52.3893 31.9592 52.4121ZM47.2339 44.4617C46.8164 44.9615 46.3843 45.4358 45.911 45.9091C45.4358 46.3843 44.9616 46.8164 44.4617 47.2339C44.2706 47.3926 44.0242 47.4691 43.7768 47.4464C43.5293 47.4237 43.301 47.3038 43.1419 47.1129C42.9828 46.922 42.9059 46.6758 42.9282 46.4283C42.9504 46.1808 43.0699 45.9523 43.2605 45.7928C43.7183 45.412 44.1513 45.0165 44.5853 44.5835C45.0166 44.1513 45.412 43.7183 45.7929 43.2605C45.9523 43.0699 46.1809 42.9504 46.4284 42.9282C46.6759 42.9059 46.9221 42.9828 47.1129 43.1419C47.3038 43.301 47.4237 43.5293 47.4464 43.7768C47.4691 44.0242 47.3927 44.2705 47.2339 44.4617ZM50.5445 28.2092C50.5226 27.9618 50.5998 27.7159 50.7592 27.5253C50.9185 27.3348 51.1469 27.2152 51.3942 27.1929C51.6416 27.1706 51.8877 27.2474 52.0786 27.4063C52.2694 27.5653 52.3894 27.7935 52.4121 28.0408C52.4716 28.6972 52.5 29.3381 52.5 30C52.5 30.6619 52.4716 31.3028 52.4121 31.9592C52.391 32.1922 52.2837 32.4088 52.1111 32.5667C51.9385 32.7246 51.7131 32.8122 51.4792 32.8125C51.4508 32.8125 51.4224 32.8116 51.3941 32.8088C51.1464 32.7864 50.9178 32.6666 50.7585 32.4757C50.5992 32.2848 50.5222 32.0384 50.5444 31.7908C50.5985 31.1911 50.625 30.6052 50.625 30C50.625 29.3948 50.5985 28.8089 50.5445 28.2092ZM30 48.75C26.2916 48.75 22.6665 47.6503 19.5831 45.5901C16.4996 43.5298 14.0964 40.6014 12.6773 37.1753C11.2581 33.7492 10.8868 29.9792 11.6103 26.3421C12.3338 22.7049 14.1195 19.364 16.7418 16.7417C19.364 14.1195 22.7049 12.3337 26.3421 11.6103C29.9792 10.8868 33.7492 11.2581 37.1753 12.6773C40.6014 14.0964 43.5298 16.4996 45.5901 19.5831C47.6503 22.6665 48.75 26.2916 48.75 30C48.7445 34.9711 46.7673 39.737 43.2522 43.2521C39.737 46.7673 34.9711 48.7445 30 48.75Z" fill="#0F4654"/>
<path d="M29.0625 38.3821V46.8274C29.3747 46.8446 29.6836 46.8749 30 46.8749C30.3164 46.8749 30.6253 46.8446 30.9375 46.8274V38.3821C30.3147 38.4558 29.6853 38.4558 29.0625 38.3821Z" fill="#0F4654"/>
<path d="M37.9444 27.1875H46.62C46.1984 24.6828 45.2131 22.3067 43.7387 20.2385L37.6055 26.3725C37.7327 26.638 37.8458 26.9101 37.9444 27.1875Z" fill="#0F4654"/>
<path d="M32.8125 37.9453V46.621C35.3172 46.1993 37.6934 45.2141 39.7615 43.7397L33.6275 37.6064C33.362 37.7337 33.09 37.8468 32.8125 37.9453Z" fill="#0F4654"/>
<path d="M39.7615 16.2604C37.6934 14.786 35.3172 13.8008 32.8125 13.3792V22.0548C33.09 22.1533 33.362 22.2665 33.6275 22.3937L39.7615 16.2604Z" fill="#0F4654"/>
</g>
<defs>
<clipPath id="clip0_106_19">
<rect width="60" height="60" fill="white"/>
</clipPath>
</defs>
</svg>
