<svg width="60" height="60" viewBox="0 0 60 60" fill="none" xmlns="http://www.w3.org/2000/svg">
<g clip-path="url(#clip0_62_168)">
<path d="M16.8439 20.3572H2.14286C0.95939 20.3572 0 21.3166 0 22.5V31.0715H8.8125C10.344 26.7697 13.1444 23.0338 16.8439 20.3572ZM5.35714 28.9286C3.58194 28.9286 2.14286 27.4895 2.14286 25.7143C2.14286 23.9391 3.58194 22.5 5.35714 22.5C7.13234 22.5 8.57143 23.9391 8.57143 25.7143C8.57143 27.4895 7.13234 28.9286 5.35714 28.9286Z" fill="#0F4654"/>
<path d="M24.2679 25.9286C24.1769 25.7982 24.0294 25.7187 23.8704 25.7144H23.0358C22.7117 25.7466 22.4734 26.0327 22.5001 26.3572V27.8572H25.7144L24.2679 25.9286Z" fill="#0F4654"/>
<path d="M43.5131 39.643L40.4885 35.4484C39.9934 34.73 39.1805 34.2966 38.3081 34.2859H36.1074L39.971 39.643H43.5131Z" fill="#0F4654"/>
<path d="M7.5 38.5715C7.50682 36.7652 7.73239 34.9664 8.17179 33.2144H0V54.6429C0 55.8264 0.95939 56.7858 2.14286 56.7858H16.8439C10.9831 52.5689 7.50641 45.7918 7.5 38.5715ZM7.5 54.6429H3.21429C2.62255 54.6429 2.14286 54.1632 2.14286 53.5715V48.2144C2.14286 47.6226 2.62255 47.1429 3.21429 47.1429C3.80602 47.1429 4.28571 47.6226 4.28571 48.2144V52.5001H7.5C8.09173 52.5001 8.57143 52.9798 8.57143 53.5715C8.57143 54.1632 8.09173 54.6429 7.5 54.6429Z" fill="#0F4654"/>
<path d="M11.7863 16.0714C11.7863 15.4797 11.3066 15 10.7148 15H4.28627C3.69454 15 3.21484 15.4797 3.21484 16.0714V18.2143H11.7863V16.0714Z" fill="#0F4654"/>
<path d="M35.3571 9.64296H36.4285C37.612 9.64296 38.5714 8.68357 38.5714 7.5001V3.21439C38.5714 2.03092 37.612 1.07153 36.4285 1.07153H34.9478L30.6621 9.64296H35.3571Z" fill="#0F4654"/>
<path d="M25.7148 16.4927C28.5444 15.9313 31.4567 15.9313 34.2863 16.4927V11.7859H25.7148V16.4927Z" fill="#0F4654"/>
<path d="M28.2661 9.64296L32.5518 1.07153H29.5904L25.3047 9.64296H28.2661Z" fill="#0F4654"/>
<path d="M22.9577 9.54332L27.1942 1.07153H23.5706C22.3871 1.07153 21.4277 2.03092 21.4277 3.21439V7.5001C21.4322 8.44377 22.0535 9.27344 22.9577 9.54332Z" fill="#0F4654"/>
<path d="M18.2152 38.5716C18.2152 37.9799 18.6949 37.5002 19.2866 37.5002C19.8783 37.5002 20.358 37.9799 20.358 38.5716V39.6484H22.5009V38.5716C22.5009 37.9799 22.9806 37.5002 23.5723 37.5002C24.164 37.5002 24.6437 37.9799 24.6437 38.5716V39.6484H26.7866V38.5716C26.7866 37.9799 27.2663 37.5002 27.858 37.5002C28.4498 37.5002 28.9295 37.9799 28.9295 38.5716V39.643H31.0723V38.5716C31.0723 37.9799 31.552 37.5002 32.1437 37.5002C32.7355 37.5002 33.2152 37.9799 33.2152 38.5716V39.643H37.3337L33.4691 34.2859H17.358C17.1424 34.3039 16.9634 34.4595 16.9155 34.6705L15.377 39.6505H18.2152V38.5716Z" fill="#0F4654"/>
<path d="M33.9008 30.3996C33.6901 30.1517 33.383 30.0061 33.0576 30H19.8319C19.5821 30.0388 19.3915 30.244 19.3712 30.4961L19.0723 32.1429H35.4726L33.9008 30.3996Z" fill="#0F4654"/>
<path d="M52.5002 38.5715C52.4938 45.7918 49.0171 52.5689 43.1562 56.7858H57.8573C59.0408 56.7858 60.0002 55.8264 60.0002 54.6429V33.2144H51.8284C52.2678 34.9664 52.4934 36.7652 52.5002 38.5715Z" fill="#0F4654"/>
<path d="M50.3569 38.5715C50.3569 27.3286 41.2427 18.2144 29.9997 18.2144C18.7568 18.2144 9.64258 27.3286 9.64258 38.5715C9.64258 49.8144 18.7568 58.9286 29.9997 58.9286C41.2375 58.9162 50.3445 49.8093 50.3569 38.5715ZM37.084 55.3522C32.5546 57.2637 27.4449 57.2637 22.9154 55.3522C22.5629 55.2029 22.3168 54.8769 22.2698 54.4969C22.2228 54.117 22.3821 53.7408 22.6876 53.5102C22.9932 53.2795 23.3986 53.2294 23.7512 53.3786C27.7479 55.0565 32.2515 55.0565 36.2483 53.3786C36.7933 53.1479 37.4222 53.4026 37.6529 53.9476C37.8837 54.4926 37.629 55.1214 37.084 55.3522ZM39.934 50.3572H17.4265C16.2438 50.3541 15.2094 49.5598 14.9011 48.4179L12.8944 41.0015C12.8869 40.9736 12.8944 40.9458 12.8944 40.9179C12.8765 40.769 12.8787 40.6184 12.9008 40.4701C12.9008 40.4465 12.9008 40.4219 12.9072 40.3983L14.8733 34.0372C15.1514 33.0957 15.9274 32.3852 16.8897 32.1911L17.2637 30.1169C17.461 28.8423 18.5415 27.8912 19.8308 27.8572H20.3569V26.3572C20.33 24.8493 21.5277 23.6037 23.0354 23.5715H23.8701C24.7043 23.5726 25.4883 23.9704 25.9819 24.6429L28.3926 27.8572H33.0565C33.9881 27.8657 34.8725 28.2682 35.4908 28.9651L38.3569 32.1429C39.8977 32.1759 41.332 32.9366 42.2237 34.1936L46.1537 39.6429H46.7537C47.3772 39.6437 47.9315 40.0403 48.1335 40.6303C48.3355 41.2202 48.1406 41.8734 47.6483 42.2561C45.6374 43.7282 44.0768 45.7318 43.1419 48.0419C42.678 49.4204 41.3885 50.3511 39.934 50.3572Z" fill="#0F4654"/>
<path d="M57.8573 20.3572H43.1562C46.8573 23.0332 49.6593 26.7692 51.192 31.0715H60.0002V22.5C60.0002 21.3166 59.0408 20.3572 57.8573 20.3572ZM54.643 28.9286C52.8678 28.9286 51.4288 27.4895 51.4288 25.7143C51.4288 23.9391 52.8678 22.5 54.643 22.5C56.4182 22.5 57.8573 23.9391 57.8573 25.7143C57.8573 27.4895 56.4182 28.9286 54.643 28.9286Z" fill="#0F4654"/>
<path d="M16.9702 47.8587C17.0248 48.0666 17.2117 48.2123 17.4267 48.2145H39.9342C40.4722 48.207 40.946 47.8582 41.1127 47.3466C41.9142 45.217 43.214 43.3102 44.9035 41.7859L15.332 41.7923L16.9702 47.8587ZM37.4999 43.9287H38.5713C39.1631 43.9287 39.6427 44.4084 39.6427 45.0002C39.6427 45.5919 39.1631 46.0716 38.5713 46.0716H37.4999C36.9082 46.0716 36.4285 45.5919 36.4285 45.0002C36.4285 44.4084 36.9082 43.9287 37.4999 43.9287Z" fill="#0F4654"/>
</g>
<defs>
<clipPath id="clip0_62_168">
<rect width="60" height="60" fill="white"/>
</clipPath>
</defs>
</svg>
