<svg width="60" height="60" viewBox="0 0 60 60" fill="none" xmlns="http://www.w3.org/2000/svg">
<g clip-path="url(#clip0_106_5)">
<path d="M48.5148 30.9375L47.8211 29.6438C47.4192 28.9002 46.8235 28.2793 46.0973 27.8468C45.3711 27.4144 44.5413 27.1866 43.6961 27.1875H24.4492L25.9492 30.9375H48.5148Z" fill="#0F4654"/>
<path d="M17.9254 37.05C18.0068 36.9024 18.1262 36.7794 18.2713 36.6936C18.4164 36.6079 18.5819 36.5626 18.7504 36.5625H51.5441L49.5285 32.8125H25.3129C25.1251 32.8127 24.9416 32.7565 24.7862 32.6512C24.6307 32.5459 24.5105 32.3963 24.441 32.2219L22.4254 27.1875H15.9379C15.768 27.1863 15.601 27.2321 15.4554 27.3198C15.3098 27.4074 15.1913 27.5336 15.1129 27.6844L8.82227 39.375H16.6598L17.9254 37.05Z" fill="#0F4654"/>
<path d="M29.1559 22.5H6.52464C6.36753 22.499 6.21276 22.5381 6.07496 22.6135C5.93716 22.689 5.82089 22.7983 5.73714 22.9313C5.65106 23.0635 5.59989 23.2154 5.58841 23.3728C5.57693 23.5302 5.60553 23.6879 5.67152 23.8313L9.16839 31.4063C9.2452 31.5679 9.36596 31.7046 9.51683 31.8007C9.66771 31.8969 9.84261 31.9486 10.0215 31.95H10.6871L13.4621 26.7938C13.6997 26.3441 14.0561 25.9682 14.4925 25.707C14.9289 25.4458 15.4286 25.3094 15.9371 25.3125H32.859L32.5496 24.6563C32.2474 24.0115 31.7676 23.4662 31.1666 23.0843C30.5655 22.7024 29.868 22.4997 29.1559 22.5Z" fill="#0F4654"/>
<path d="M59.0625 47.8126C57.638 47.7818 56.2324 48.1422 54.9984 48.8545C54.0183 49.4008 52.9148 49.6876 51.7927 49.6876C50.6706 49.6876 49.5671 49.4008 48.587 48.8545C47.3417 48.171 45.944 47.8126 44.5234 47.8126C43.1028 47.8126 41.7052 48.171 40.4599 48.8545C39.4807 49.4008 38.3781 49.6876 37.2569 49.6876C36.1357 49.6876 35.0331 49.4008 34.0539 48.8545C32.8203 48.1422 31.415 47.7818 29.9908 47.8126C28.5667 47.7818 27.1613 48.1422 25.9277 48.8545C24.9608 49.4293 23.8506 49.7182 22.7261 49.6876C21.6016 49.7183 20.4915 49.4294 19.5246 48.8545C18.2916 48.1421 16.8869 47.7818 15.4633 47.8126C14.0394 47.7818 12.6343 48.1422 11.4011 48.8545C10.4344 49.4293 9.3246 49.7182 8.20038 49.6876C7.07587 49.7183 5.96572 49.4294 4.99882 48.8545C3.76588 48.1421 2.3611 47.7818 0.9375 47.8126C0.814377 47.8126 0.692454 47.8368 0.578696 47.8839C0.464939 47.931 0.361577 48.0001 0.274516 48.0871C0.187455 48.1742 0.1184 48.2776 0.0712977 48.3913C0.0241953 48.5051 -3.19928e-05 48.627 3.17069e-08 48.7501V53.4376C-3.19928e-05 53.5607 0.0241953 53.6827 0.0712977 53.7964C0.1184 53.9102 0.187455 54.0135 0.274516 54.1006C0.361577 54.1877 0.464939 54.2567 0.578696 54.3038C0.692454 54.3509 0.814377 54.3752 0.9375 54.3751C2.06172 54.3445 3.17156 54.6334 4.13818 55.2082C5.37145 55.9206 6.7765 56.281 8.20038 56.2501C9.62396 56.281 11.0287 55.9206 12.2616 55.2082C13.2285 54.6333 14.3387 54.3444 15.4633 54.3751C16.5875 54.3445 17.6973 54.6334 18.6639 55.2082C19.8972 55.9206 21.3023 56.281 22.7261 56.2501C24.15 56.2808 25.555 55.9205 26.7883 55.2082C27.7556 54.6334 28.866 54.3446 29.9908 54.3751C31.1156 54.3446 32.226 54.6334 33.1933 55.2082C34.4387 55.8918 35.8363 56.2501 37.2569 56.2501C38.6775 56.2501 40.0752 55.8918 41.3205 55.2082C42.3 54.6619 43.4029 54.3751 44.5244 54.3751C45.646 54.3751 46.7489 54.6619 47.7283 55.2082C48.974 55.8918 50.3719 56.2501 51.7928 56.2501C53.2137 56.2501 54.6116 55.8918 55.8573 55.2082C56.8256 54.6335 57.9369 54.3446 59.0625 54.3751C59.1856 54.3752 59.3075 54.3509 59.4213 54.3038C59.5351 54.2567 59.6384 54.1877 59.7255 54.1006C59.8125 54.0135 59.8816 53.9102 59.9287 53.7964C59.9758 53.6827 60 53.5607 60 53.4376V48.7501C60 48.627 59.9758 48.5051 59.9287 48.3913C59.8816 48.2776 59.8125 48.1742 59.7255 48.0871C59.6384 48.0001 59.5351 47.931 59.4213 47.8839C59.3075 47.8368 59.1856 47.8126 59.0625 47.8126Z" fill="#0F4654"/>
<path d="M46.41 20.625L55.7987 20.5916C56.8815 20.5914 57.9225 20.1732 58.7045 19.4242C59.4865 18.6751 59.9492 17.6532 59.996 16.5713C60.0429 15.4895 59.6704 14.4314 58.9561 13.6175C58.2418 12.8037 57.2409 12.297 56.1621 12.2031C55.951 11.1425 55.379 10.1878 54.5434 9.50135C53.7079 8.81486 52.6604 8.43895 51.579 8.43752C50.3963 8.43387 49.2576 8.88583 48.3994 9.69958C47.9256 9.48538 47.4115 9.37473 46.8915 9.37502C45.9017 9.3761 44.9526 9.7698 44.2527 10.4697C43.5528 11.1697 43.1591 12.1187 43.158 13.1085C43.1584 13.2984 43.1749 13.4878 43.2074 13.6748C42.6808 14.2858 42.341 15.0354 42.2285 15.8342C42.1161 16.633 42.2358 17.4472 42.5734 18.1799C42.911 18.9125 43.4522 19.5326 44.1324 19.9661C44.8127 20.3997 45.6033 20.6284 46.41 20.625Z" fill="#0F4654"/>
<path d="M17.3263 15.9041L26.7187 15.9375C27.525 15.9402 28.3151 15.7109 28.9948 15.2771C29.6746 14.8433 30.2152 14.2232 30.5523 13.4907C30.8894 12.7582 31.0089 11.9442 30.8963 11.1458C30.7838 10.3473 30.444 9.59806 29.9175 8.9873C29.9501 8.80029 29.9666 8.61086 29.967 8.42105C29.9659 7.43119 29.5722 6.48218 28.8723 5.78224C28.1723 5.0823 27.2233 4.6886 26.2335 4.68752C25.7135 4.68723 25.1994 4.79788 24.7256 5.01208C23.8673 4.19833 22.7287 3.74637 21.546 3.75002C20.4646 3.75145 19.4171 4.12736 18.5815 4.81385C17.746 5.50034 17.174 6.45502 16.9628 7.51558C15.8841 7.60947 14.8832 8.11617 14.1689 8.93001C13.4546 9.74385 13.0821 10.802 13.1289 11.8838C13.1758 12.9657 13.6385 13.9876 14.4205 14.7367C15.2025 15.4857 16.2435 15.9039 17.3263 15.9041Z" fill="#0F4654"/>
<path d="M38.4375 19.6875H40.2832C40.5318 19.6875 40.7703 19.5887 40.9461 19.4129C41.1219 19.2371 41.2207 18.9986 41.2207 18.75C41.2207 18.5014 41.1219 18.2629 40.9461 18.0871C40.7703 17.9113 40.5318 17.8125 40.2832 17.8125H38.4375C38.1889 17.8125 37.9504 17.9113 37.7746 18.0871C37.5988 18.2629 37.5 18.5014 37.5 18.75C37.5 18.9986 37.5988 19.2371 37.7746 19.4129C37.9504 19.5887 38.1889 19.6875 38.4375 19.6875Z" fill="#0F4654"/>
<path d="M30 18.75C30 18.8731 30.0242 18.995 30.0713 19.1088C30.1184 19.2226 30.1875 19.3259 30.2745 19.413C30.3616 19.5 30.4649 19.5691 30.5787 19.6162C30.6925 19.6633 30.8144 19.6875 30.9375 19.6875H35.5957C35.8443 19.6875 36.0828 19.5887 36.2586 19.4129C36.4344 19.2371 36.5332 18.9986 36.5332 18.75C36.5332 18.5014 36.4344 18.2629 36.2586 18.0871C36.0828 17.9113 35.8443 17.8125 35.5957 17.8125H30.9375C30.8144 17.8125 30.6925 17.8367 30.5787 17.8838C30.4649 17.9309 30.3616 18 30.2745 18.087C30.1875 18.1741 30.1184 18.2774 30.0713 18.3912C30.0242 18.505 30 18.6269 30 18.75Z" fill="#0F4654"/>
<path d="M0.9375 15H2.7832C3.03184 15 3.2703 14.9012 3.44612 14.7254C3.62193 14.5496 3.7207 14.3111 3.7207 14.0625C3.7207 13.8139 3.62193 13.5754 3.44612 13.3996C3.2703 13.2238 3.03184 13.125 2.7832 13.125H0.9375C0.68886 13.125 0.450403 13.2238 0.274587 13.3996C0.0987721 13.5754 0 13.8139 0 14.0625C0 14.3111 0.0987721 14.5496 0.274587 14.7254C0.450403 14.9012 0.68886 15 0.9375 15Z" fill="#0F4654"/>
<path d="M5.625 15H11.2207C11.4693 15 11.7078 14.9012 11.8836 14.7254C12.0594 14.5496 12.1582 14.3111 12.1582 14.0625C12.1582 13.8139 12.0594 13.5754 11.8836 13.3996C11.7078 13.2238 11.4693 13.125 11.2207 13.125H5.625C5.37636 13.125 5.1379 13.2238 4.96209 13.3996C4.78627 13.5754 4.6875 13.8139 4.6875 14.0625C4.6875 14.3111 4.78627 14.5496 4.96209 14.7254C5.1379 14.9012 5.37636 15 5.625 15Z" fill="#0F4654"/>
<path d="M54.1586 41.3157H58.0586L59.4461 38.7657C59.4649 38.7317 59.4744 38.6935 59.4738 38.6547C59.4731 38.616 59.4622 38.5781 59.4423 38.5448C59.4223 38.5116 59.394 38.4841 59.3601 38.4653C59.3262 38.4465 59.288 38.4369 59.2492 38.4375H19.3023L18.0367 40.7625L17.9898 40.8375L15.2148 45.9469C15.2958 45.9389 15.3772 45.9358 15.4586 45.9375C17.1811 45.9066 18.8804 46.3372 20.3805 47.1844C21.0815 47.623 21.8978 47.8417 22.7242 47.8125C23.5506 47.8417 24.3669 47.623 25.068 47.1844C26.568 46.3372 28.2674 45.9067 29.9898 45.9375C31.7123 45.9066 33.4117 46.3372 34.9117 47.1844C35.6243 47.5959 36.4326 47.8126 37.2555 47.8126C38.0783 47.8126 38.8867 47.5959 39.5992 47.1844C41.1107 46.3661 42.8023 45.9376 44.5211 45.9376C46.2399 45.9376 47.9315 46.3661 49.443 47.1844C50.1572 47.5959 50.9671 47.8126 51.7914 47.8126C52.6157 47.8126 53.4256 47.5959 54.1398 47.1844C54.4305 47.0344 54.7492 46.875 55.1148 46.725L57.0367 43.1907H54.1586C53.91 43.1907 53.6715 43.0919 53.4957 42.9161C53.3199 42.7403 53.2211 42.5018 53.2211 42.2532C53.2211 42.0045 53.3199 41.7661 53.4957 41.5902C53.6715 41.4144 53.91 41.3157 54.1586 41.3157ZM30.9367 43.1907H27.9086C27.66 43.1907 27.4215 43.0919 27.2457 42.9161C27.0699 42.7403 26.9711 42.5018 26.9711 42.2532C26.9711 42.0045 27.0699 41.7661 27.2457 41.5902C27.4215 41.4144 27.66 41.3157 27.9086 41.3157H30.9367C31.1854 41.3157 31.4238 41.4144 31.5996 41.5902C31.7754 41.7661 31.8742 42.0045 31.8742 42.2532C31.8742 42.5018 31.7754 42.7403 31.5996 42.9161C31.4238 43.0919 31.1854 43.1907 30.9367 43.1907ZM37.4992 43.1907H34.4711C34.2225 43.1907 33.984 43.0919 33.8082 42.9161C33.6324 42.7403 33.5336 42.5018 33.5336 42.2532C33.5336 42.0045 33.6324 41.7661 33.8082 41.5902C33.984 41.4144 34.2225 41.3157 34.4711 41.3157H37.4992C37.7479 41.3157 37.9863 41.4144 38.1621 41.5902C38.3379 41.7661 38.4367 42.0045 38.4367 42.2532C38.4367 42.5018 38.3379 42.7403 38.1621 42.9161C37.9863 43.0919 37.7479 43.1907 37.4992 43.1907ZM44.0617 43.1907H41.0336C40.785 43.1907 40.5465 43.0919 40.3707 42.9161C40.1949 42.7403 40.0961 42.5018 40.0961 42.2532C40.0961 42.0045 40.1949 41.7661 40.3707 41.5902C40.5465 41.4144 40.785 41.3157 41.0336 41.3157H44.0617C44.3104 41.3157 44.5488 41.4144 44.7246 41.5902C44.9004 41.7661 44.9992 42.0045 44.9992 42.2532C44.9992 42.5018 44.9004 42.7403 44.7246 42.9161C44.5488 43.0919 44.3104 43.1907 44.0617 43.1907ZM50.6242 43.1907H47.5961C47.3475 43.1907 47.109 43.0919 46.9332 42.9161C46.7574 42.7403 46.6586 42.5018 46.6586 42.2532C46.6586 42.0045 46.7574 41.7661 46.9332 41.5902C47.109 41.4144 47.3475 41.3157 47.5961 41.3157H50.6242C50.8729 41.3157 51.1113 41.4144 51.2871 41.5902C51.4629 41.7661 51.5617 42.0045 51.5617 42.2532C51.5617 42.5018 51.4629 42.7403 51.2871 42.9161C51.1113 43.0919 50.8729 43.1907 50.6242 43.1907Z" fill="#0F4654"/>
<path d="M5.85859 47.1844C6.55966 47.6229 7.37592 47.8417 8.20234 47.8125C9.02583 47.8418 9.83912 47.623 10.5367 47.1844C11.2932 46.7727 12.0956 46.4517 12.9273 46.2281L15.6367 41.25H4.65859L2.55859 46.05C3.71795 46.2262 4.83591 46.6105 5.85859 47.1844Z" fill="#0F4654"/>
</g>
<defs>
<clipPath id="clip0_106_5">
<rect width="60" height="60" fill="white"/>
</clipPath>
</defs>
</svg>
