<svg width="60" height="60" viewBox="0 0 60 60" fill="none" xmlns="http://www.w3.org/2000/svg">
<g clip-path="url(#clip0_62_143)">
<path d="M11.3788 44.4826C14.8067 44.4826 17.5857 41.7037 17.5857 38.2757C17.5857 34.8478 14.8067 32.0688 11.3788 32.0688C7.9508 32.0688 5.17188 34.8478 5.17188 38.2757C5.17188 41.7037 7.9508 44.4826 11.3788 44.4826Z" fill="#0F4654"/>
<path d="M19.9108 32.0202C17.8505 29.4299 14.7191 27.9237 11.4094 27.9309C5.07856 27.9714 -0.0251318 33.1283 9.31038e-05 39.4592C9.31038e-05 49.2785 8.73216 56.8706 11.4084 58.9654C13.6097 57.2409 20.9173 50.9689 22.5094 42.6889C23.2697 38.9232 22.3177 35.0144 19.9108 32.0202ZM11.3794 46.5516C6.80877 46.5516 3.10354 42.8464 3.10354 38.2758C3.10354 33.7051 6.80877 29.9999 11.3794 29.9999C15.95 29.9999 19.6553 33.7051 19.6553 38.2758C19.6501 42.8443 15.9479 46.5465 11.3794 46.5516Z" fill="#0F4654"/>
<path d="M45.8741 3.28962L45.4603 2.03273C45.3911 1.78456 45.2084 1.58384 44.9679 1.49169C43.806 1.13954 42.5933 0.984975 41.3803 1.03445C40.1795 0.985309 38.979 1.13634 37.8279 1.48135C37.5753 1.56855 37.3803 1.77236 37.3044 2.02859L36.8906 3.28962C38.2251 3.1748 39.7117 3.10342 41.3803 3.10342C43.0489 3.10342 44.5355 3.1748 45.8741 3.28962Z" fill="#0F4654"/>
<path d="M55.2417 9.31029L54.591 7.96547C54.4381 7.65257 54.1871 7.39827 53.8762 7.24133C52.31 6.47064 48.6003 5.17236 41.3796 5.17236C34.159 5.17236 30.4493 6.4665 28.879 7.24133C28.5651 7.4007 28.3128 7.65927 28.161 7.97685L27.5176 9.31029H55.2417Z" fill="#0F4654"/>
<path d="M49.1377 32.069C49.9947 32.069 50.6894 31.3743 50.6894 30.5173C50.6894 29.6603 49.9947 28.9656 49.1377 28.9656C48.2807 28.9656 47.5859 29.6603 47.5859 30.5173C47.5859 31.3743 48.2807 32.069 49.1377 32.069Z" fill="#0F4654"/>
<path d="M33.6201 32.069C34.4771 32.069 35.1718 31.3743 35.1718 30.5173C35.1718 29.6603 34.4771 28.9656 33.6201 28.9656C32.7631 28.9656 32.0684 29.6603 32.0684 30.5173C32.0684 31.3743 32.7631 32.069 33.6201 32.069Z" fill="#0F4654"/>
<path d="M41.3802 13.4484H57.124L57.6412 11.3794H41.3802H25.1191L25.6364 13.4484H41.3802Z" fill="#0F4654"/>
<path d="M26.8965 15.5171V23.5861L40.771 20.8116C41.1725 20.7309 41.586 20.7309 41.9875 20.8116L55.862 23.5861V15.5171H26.8965ZM32.0689 19.655H28.9654C28.3941 19.655 27.931 19.1919 27.931 18.6205C27.931 18.0492 28.3941 17.5861 28.9654 17.5861H32.0689C32.6402 17.5861 33.1034 18.0492 33.1034 18.6205C33.1034 19.1919 32.6402 19.655 32.0689 19.655ZM39.3103 19.655H36.2068C35.6355 19.655 35.1723 19.1919 35.1723 18.6205C35.1723 18.0492 35.6355 17.5861 36.2068 17.5861H39.3103C39.8816 17.5861 40.3448 18.0492 40.3448 18.6205C40.3448 19.1919 39.8816 19.655 39.3103 19.655ZM50.6896 17.5861H53.793C54.3644 17.5861 54.8275 18.0492 54.8275 18.6205C54.8275 19.1919 54.3644 19.655 53.793 19.655H50.6896C50.1183 19.655 49.6551 19.1919 49.6551 18.6205C49.6551 18.0492 50.1183 17.5861 50.6896 17.5861ZM43.4482 17.5861H46.5517C47.123 17.5861 47.5861 18.0492 47.5861 18.6205C47.5861 19.1919 47.123 19.655 46.5517 19.655H43.4482C42.8769 19.655 42.4137 19.1919 42.4137 18.6205C42.4137 18.0492 42.8769 17.5861 43.4482 17.5861Z" fill="#0F4654"/>
<path d="M55.3458 49.655H31.5527C30.6957 49.655 30.001 48.9603 30.001 48.1033C30.001 47.2463 30.6957 46.5516 31.5527 46.5516H52.2424C54.242 46.5516 55.8631 44.9306 55.8631 42.9309C55.8631 40.9313 54.242 39.3102 52.2424 39.3102H50.1962C50.9696 37.5949 52.043 36.0314 53.3658 34.6933C53.9535 34.0568 54.5084 33.3908 55.0283 32.6978C56.2514 31.0115 56.9061 28.9796 56.8976 26.8964V25.9012L42.4148 23.0047V35.1723C42.4148 35.7436 41.9516 36.2068 41.3803 36.2068C40.809 36.2068 40.3458 35.7436 40.3458 35.1723V23.0037L25.8631 25.9002V26.8964C25.8541 28.9803 26.5088 31.013 27.7324 32.6999C28.2523 33.3928 28.8071 34.0589 29.3948 34.6954C31.1607 36.3981 32.4354 38.545 33.0848 40.9106C33.1394 41.178 33.3706 41.3728 33.6434 41.3812H52.2424C53.0994 41.3812 53.7941 42.076 53.7941 42.933C53.7941 43.79 53.0994 44.4847 52.2424 44.4847H31.5527C29.5531 44.4847 27.932 46.1057 27.932 48.1054C27.932 50.105 29.5531 51.7261 31.5527 51.7261H55.3458C56.7742 51.7261 57.932 52.884 57.932 54.3123C57.932 55.7406 56.7742 56.8985 55.3458 56.8985H17.5872C17.0159 56.8985 16.5527 57.3616 16.5527 57.933C16.5527 58.5043 17.0159 58.9675 17.5872 58.9675H55.3458C57.9168 58.9675 60.001 56.8833 60.001 54.3123C60.001 51.7413 57.9168 49.6571 55.3458 49.6571V49.655ZM49.1389 26.8964C51.1386 26.8964 52.7596 28.5175 52.7596 30.5171C52.7596 32.5168 51.1386 34.1378 49.1389 34.1378C47.1393 34.1378 45.5182 32.5168 45.5182 30.5171C45.5182 28.5175 47.1393 26.8964 49.1389 26.8964ZM30.001 30.5171C30.001 28.5175 31.622 26.8964 33.6217 26.8964C35.6214 26.8964 37.2424 28.5175 37.2424 30.5171C37.2424 32.5168 35.6214 34.1378 33.6217 34.1378C31.622 34.1378 30.001 32.5168 30.001 30.5171Z" fill="#0F4654"/>
</g>
<defs>
<clipPath id="clip0_62_143">
<rect width="60" height="60" fill="white"/>
</clipPath>
</defs>
</svg>
