<svg width="100" height="100" viewBox="0 0 100 100" fill="none" xmlns="http://www.w3.org/2000/svg">
<g clip-path="url(#clip0_59_48)">
<path d="M86.8855 43.4426C86.9017 23.859 73.5823 6.77965 54.5849 2.02382C35.5876 -2.73202 15.7921 6.05733 6.57946 23.3387C-2.6332 40.62 1.10339 61.9543 15.641 75.0759C30.1786 88.1975 51.7829 89.7359 68.0331 78.8066L73.7134 84.4869L86.0085 96.782C89.2113 99.9843 94.4037 99.984 97.606 96.7812C100.808 93.5784 100.808 88.386 97.6052 85.1836L79.6265 67.2131C84.3678 60.1933 86.8962 51.9136 86.8855 43.4426ZM44.2626 82.7869C22.5333 82.7869 4.91832 65.1719 4.91832 43.4426C4.91832 21.7134 22.5333 4.09839 44.2626 4.09839C65.9918 4.09839 83.6068 21.7134 83.6068 43.4426C83.5815 65.1614 65.9813 82.7616 44.2626 82.7869ZM95.2839 94.4639C93.334 96.3179 90.2731 96.3179 88.3232 94.4639L77.1872 83.3279L84.1478 76.3672L95.2839 87.5033C97.2018 89.4272 97.2018 92.5401 95.2839 94.4639ZM81.8298 74.0492L74.8691 81.0099L70.6986 76.8394C73.2776 74.7932 75.6131 72.4577 77.6593 69.8787L81.8298 74.0492Z" fill="#0F4654"/>
<path d="M40.9832 36.8853H36.0651C35.1597 36.8853 34.4258 37.6192 34.4258 38.5246C34.4258 39.43 35.1597 40.1639 36.0651 40.1639H40.9832C41.8885 40.1639 42.6225 39.43 42.6225 38.5246C42.6225 37.6192 41.8885 36.8853 40.9832 36.8853Z" fill="#0F4654"/>
<path d="M31.9682 51.6394C28.7993 51.6394 26.2305 54.2083 26.2305 57.3771C26.2305 60.546 28.7993 63.1148 31.9682 63.1148C35.137 63.1148 37.7059 60.546 37.7059 57.3771C37.7059 54.2083 35.137 51.6394 31.9682 51.6394ZM31.9682 59.8361C30.6101 59.8361 29.5092 58.7352 29.5092 57.3771C29.5092 56.019 30.6101 54.9181 31.9682 54.9181C33.3263 54.9181 34.4272 56.019 34.4272 57.3771C34.4272 58.7352 33.3263 59.8361 31.9682 59.8361Z" fill="#0F4654"/>
<path d="M72.1308 49.8066C72.123 48.693 71.489 47.6786 70.4914 47.1837V33.3361C71.4376 32.9384 72.1415 32.1186 72.3914 31.123L73.2111 27.8443C73.4559 26.865 73.2359 25.8274 72.6147 25.0317C71.9934 24.2359 71.0403 23.7707 70.0308 23.7706H69.8783L68.1488 20.2017C67.5917 19.0511 66.6694 18.1173 65.5258 17.546C62.1815 16.0383 58.6242 15.0568 54.9799 14.6361L53.8357 11.2116C53.4077 9.83764 52.3527 8.74858 50.9931 8.27713C48.8145 7.60714 46.54 7.30301 44.2619 7.37713C42.0024 7.30273 39.746 7.6007 37.5832 8.25909C36.2026 8.72373 35.1272 9.8204 34.6898 11.2099L33.5422 14.6427C29.896 15.063 26.3368 16.0457 22.9914 17.5558C21.8465 18.1292 20.9241 19.0661 20.3685 20.2197L18.6455 23.7706H18.4931C17.4836 23.7707 16.5304 24.2359 15.9092 25.0317C15.2879 25.8274 15.0679 26.865 15.3127 27.8443L16.1324 31.123C16.3823 32.1186 17.0862 32.9384 18.0324 33.3361V47.187C17.0348 47.6819 16.4008 48.6963 16.3931 49.8099V51.6394C16.3781 55.6337 17.6343 59.5293 19.98 62.7624C20.8683 63.9492 21.8166 65.09 22.8209 66.1804C25.2444 68.4819 27.0076 71.3902 27.9275 74.6033C28.3595 76.5076 30.0487 77.8616 32.0013 77.8689H56.5226C58.4761 77.8612 60.1656 76.5056 60.5963 74.6001C61.5162 71.387 63.2794 68.4787 65.7029 66.1771C66.7073 65.0863 67.6561 63.9455 68.5455 62.7591C70.8893 59.5264 72.1448 55.6323 72.1308 51.6394V49.8066ZM45.2258 41.9919C44.589 41.8648 43.9332 41.8648 43.2963 41.9919L21.3111 46.3935V33.6066H67.2127V46.3935L45.2258 41.9919ZM19.3111 30.3279L18.4914 27.0493H70.0324L69.2127 30.3279H19.3111ZM37.8045 12.2296C37.9236 11.8232 38.2331 11.5002 38.634 11.364C40.4576 10.8169 42.3596 10.5776 44.2619 10.6558C46.1826 10.5778 48.1027 10.8227 49.9422 11.3804C50.323 11.5266 50.6119 11.8447 50.7209 12.2378L51.3767 14.2296C49.2619 14.0476 46.9062 13.9345 44.2619 13.9345C41.6177 13.9345 39.2619 14.0476 37.1406 14.2296L37.8045 12.2296ZM23.3144 21.6525C23.5553 21.15 23.9552 20.7409 24.4521 20.4886C26.9406 19.264 32.8209 17.2099 44.2619 17.2099C55.7029 17.2099 61.5832 19.2607 64.0652 20.4886C64.5649 20.7372 64.9684 21.1441 65.2127 21.646L66.2455 23.7771H22.2947L23.3144 21.6525ZM68.8521 51.6394C68.8661 54.9417 67.8286 58.1628 65.8898 60.8361C65.0659 61.9343 64.1866 62.9898 63.2554 63.9984C60.4562 66.6961 58.4361 70.0986 57.4078 73.8476C57.3214 74.2714 56.9549 74.5802 56.5226 74.5935H32.0013C31.5689 74.5802 31.2025 74.2714 31.116 73.8476C30.0877 70.0986 28.0677 66.6961 25.2685 63.9984C24.3376 62.99 23.4583 61.9351 22.634 60.8378C20.6955 58.1637 19.6581 54.9422 19.6718 51.6394V50.0624L42.6226 45.4722V64.7542C42.6226 65.6596 43.3565 66.3935 44.2619 66.3935C45.1673 66.3935 45.9013 65.6596 45.9013 64.7542V45.4706L68.8521 50.0607V51.6394Z" fill="#0F4654"/>
<path d="M56.558 51.6394C53.3892 51.6394 50.8203 54.2083 50.8203 57.3771C50.8203 60.546 53.3892 63.1148 56.558 63.1148C59.7269 63.1148 62.2957 60.546 62.2957 57.3771C62.2957 54.2083 59.7269 51.6394 56.558 51.6394ZM56.558 59.8361C55.1999 59.8361 54.099 58.7352 54.099 57.3771C54.099 56.019 55.1999 54.9181 56.558 54.9181C57.9161 54.9181 59.017 56.019 59.017 57.3771C59.017 58.7352 57.9161 59.8361 56.558 59.8361Z" fill="#0F4654"/>
<path d="M29.5085 36.8853H24.5905C23.6851 36.8853 22.9512 37.6192 22.9512 38.5246C22.9512 39.43 23.6851 40.1639 24.5905 40.1639H29.5085C30.4139 40.1639 31.1479 39.43 31.1479 38.5246C31.1479 37.6192 30.4139 36.8853 29.5085 36.8853Z" fill="#0F4654"/>
<path d="M59.0163 40.1639H63.9343C64.8397 40.1639 65.5737 39.43 65.5737 38.5246C65.5737 37.6192 64.8397 36.8853 63.9343 36.8853H59.0163C58.1109 36.8853 57.377 37.6192 57.377 38.5246C57.377 39.43 58.1109 40.1639 59.0163 40.1639Z" fill="#0F4654"/>
<path d="M52.4597 40.1639C53.3651 40.1639 54.0991 39.43 54.0991 38.5246C54.0991 37.6192 53.3651 36.8853 52.4597 36.8853H47.5417C46.6363 36.8853 45.9023 37.6192 45.9023 38.5246C45.9023 39.43 46.6363 40.1639 47.5417 40.1639H52.4597Z" fill="#0F4654"/>
<path d="M77.049 43.4425C77.0554 47.1651 76.4216 50.861 75.1752 54.3688C74.8721 55.2216 75.3176 56.1588 76.1703 56.4622C76.3472 56.5249 76.5335 56.557 76.7211 56.5573C77.4147 56.5571 78.0331 56.1206 78.2654 55.4671C81.0151 47.6865 81.0151 39.1985 78.2654 31.418C77.9621 30.5646 77.0245 30.1187 76.1711 30.422C75.3178 30.7254 74.8719 31.663 75.1752 32.5163C76.4216 36.024 77.0554 39.72 77.049 43.4425Z" fill="#0F4654"/>
<path d="M11.476 43.4425C11.4695 39.72 12.1034 36.024 13.3497 32.5163C13.653 31.663 13.2072 30.7254 12.3538 30.422C11.5005 30.1187 10.5629 30.5646 10.2596 31.418C7.50983 39.1985 7.50983 47.6865 10.2596 55.4671C10.4919 56.1206 11.1103 56.5571 11.8038 56.5573C11.9915 56.557 12.1777 56.5249 12.3546 56.4622C13.2074 56.1588 13.6528 55.2216 13.3497 54.3688C12.1034 50.861 11.4695 47.1651 11.476 43.4425Z" fill="#0F4654"/>
</g>
<defs>
<clipPath id="clip0_59_48">
<rect width="100" height="100" fill="white"/>
</clipPath>
</defs>
</svg>
