<svg width="60" height="60" viewBox="0 0 60 60" fill="none" xmlns="http://www.w3.org/2000/svg">
<g clip-path="url(#clip0_62_155)">
<path d="M2.08483 39.4799C2.12028 39.5718 2.19292 39.6445 2.28483 39.6799C2.46483 39.7469 2.90883 39.7939 3.87683 39.3249C4.89483 38.8309 5.91683 38.2689 6.90483 37.7249L7.90483 37.1749C8.49283 36.8556 9.07916 36.5346 9.66383 36.2119C10.9388 35.5119 12.2148 34.8119 13.5088 34.1409C14.2616 33.7744 15.0533 33.4936 15.8688 33.3039C16.7227 33.1054 17.6175 33.1839 18.4238 33.5279C20.6622 34.473 23.164 34.59 25.4808 33.8579C25.9709 33.6958 26.4474 33.4952 26.9058 33.2579C27.0853 33.1709 27.1958 32.9855 27.1871 32.7863C27.1784 32.5871 27.0522 32.412 26.8658 32.3409C25.3138 31.7299 23.8298 31.2189 23.5218 31.0819C23.1188 30.905 22.8789 30.4853 22.9309 30.0482C22.9829 29.6111 23.3145 29.2594 23.7478 29.1819C24.6105 29.0346 25.4847 28.9653 26.3598 28.9749C27.3498 28.9749 28.3158 29.0429 29.1028 29.1219C35.5088 29.7679 41.7678 32.4929 44.6398 34.8509C45.3255 35.3113 45.5555 36.2135 45.1738 36.9459C44.3468 39.2059 43.8428 40.7609 44.2738 42.3659C44.325 42.5387 44.464 42.6712 44.6389 42.7142C44.8138 42.7573 44.9984 42.7042 45.1238 42.5749C46.0358 41.7742 47.0929 41.1557 48.2378 40.7529C48.5434 40.6143 48.7843 40.3638 48.9108 40.0529L49.2238 39.4079C49.4392 38.9861 49.9174 38.7688 50.3768 38.8839C51.1177 39.0401 51.8887 38.8365 52.4558 38.3349C53.5388 37.4662 54.9789 37.1837 56.3098 37.5789C56.5322 37.6293 56.7605 37.5228 56.8648 37.32C56.9692 37.1173 56.9231 36.8696 56.7528 36.7179C54.6777 34.938 51.978 34.06 49.2528 34.2789C48.2912 34.3698 47.3663 33.8858 46.8928 33.0439C45.9298 31.4839 44.9058 29.8779 43.7658 28.1369C40.5241 22.9643 35.5493 19.1124 29.7298 17.2689C29.3633 17.1812 29.0489 16.9469 28.8599 16.6209C28.6709 16.2949 28.6239 15.9056 28.7298 15.5439C29.1581 14.1353 29.72 12.7707 30.4078 11.4689C30.7658 10.7309 31.1318 9.97694 31.4518 9.21994C31.516 9.056 31.4907 8.87054 31.3849 8.72978C31.2792 8.58902 31.1081 8.51303 30.9328 8.52894C29.2863 8.66178 27.7141 9.27087 26.4078 10.2819C25.0214 11.3216 23.8242 12.5921 22.8688 14.0379C21.9438 15.3379 21.1448 16.4579 19.4688 16.7599C14.2078 17.7079 7.81883 21.6059 5.15383 24.6529C1.71283 28.5859 1.79983 33.1109 2.58983 34.1769C2.96997 34.6585 3.04363 35.3141 2.77983 35.8679C2.07983 37.7169 1.84583 38.9329 2.08483 39.4799ZM10.7758 22.6149C13.52 20.7609 16.5899 19.4421 19.8238 18.7279C20.1761 18.6643 20.5355 18.7935 20.7667 19.0668C20.9979 19.3401 21.0658 19.7159 20.9447 20.0528C20.8237 20.3897 20.5321 20.6363 20.1798 20.6999C17.2068 21.3666 14.3862 22.588 11.8658 24.2999C11.5661 24.4946 11.1852 24.5147 10.8667 24.3524C10.5482 24.1902 10.3405 23.8704 10.3217 23.5134C10.303 23.1565 10.4761 22.8167 10.7758 22.6219V22.6149ZM6.14983 29.4999C6.69292 29.5883 7.06261 30.0988 6.97711 30.6424C6.8916 31.1859 6.38304 31.5583 5.83904 31.4756C5.29505 31.393 4.92003 30.8864 4.99983 30.3419C5.03868 30.0768 5.18231 29.8384 5.3985 29.6801C5.61469 29.5218 5.88536 29.4569 6.14983 29.4999Z" fill="#0F4654"/>
<path d="M59 48.4998C57.6894 48.5562 56.4914 49.257 55.8 50.3718C55.2 51.1128 54.859 51.4998 54.16 51.4998C53.461 51.4998 53.116 51.1128 52.519 50.3718C51.8706 49.2132 50.6467 48.4956 49.319 48.4956C47.9913 48.4956 46.7674 49.2132 46.119 50.3718C45.519 51.1118 45.178 51.4988 44.479 51.4988C43.78 51.4988 43.438 51.1118 42.841 50.3718C42.1933 49.2155 40.9714 48.4993 39.646 48.4993C38.3206 48.4993 37.0987 49.2155 36.451 50.3718C35.851 51.1118 35.512 51.4988 34.814 51.4988C34.116 51.4988 33.773 51.1118 33.176 50.3718C32.4872 49.2587 31.2927 48.5579 29.985 48.4998C28.6741 48.5562 27.4761 49.2575 26.785 50.3728C26.185 51.1138 25.846 51.4998 25.148 51.4998C24.45 51.4998 24.107 51.1128 23.51 50.3728C22.8205 49.2598 21.626 48.5588 20.318 48.4998C19.0092 48.5578 17.8136 49.2589 17.124 50.3728C16.524 51.1128 16.185 51.4998 15.487 51.4998C14.789 51.4998 14.448 51.1138 13.853 50.3728C13.1634 49.2589 11.9678 48.5578 10.659 48.4998C9.34988 48.5577 8.15395 49.2588 7.464 50.3728C6.864 51.1128 6.524 51.4998 5.827 51.4998C5.13 51.4998 4.788 51.1138 4.192 50.3728C3.50364 49.2586 2.30845 48.5573 1 48.4998C0.447715 48.4998 0 48.9475 0 49.4998C0 50.0521 0.447715 50.4998 1 50.4998C1.7 50.4998 2.038 50.8858 2.634 51.6258C3.32244 52.7406 4.51805 53.4423 5.827 53.4998C7.13807 53.4441 8.33644 52.7427 9.027 51.6268C9.627 50.8868 9.967 50.4998 10.664 50.4998C11.361 50.4998 11.703 50.8858 12.299 51.6268C12.9873 52.7391 14.1803 53.44 15.487 53.4998C16.7979 53.4434 17.9959 52.7422 18.687 51.6268C19.282 50.8858 19.626 50.4998 20.322 50.4998C21.018 50.4998 21.363 50.8868 21.961 51.6268C22.6502 52.7397 23.8443 53.4407 25.152 53.4998C26.4632 53.4445 27.6617 52.7429 28.352 51.6268C28.952 50.8868 29.293 50.4998 29.99 50.4998C30.687 50.4998 31.031 50.8858 31.627 51.6268C32.3163 52.7396 33.5104 53.4405 34.818 53.4998C36.1289 53.4434 37.3269 52.7422 38.018 51.6268C38.613 50.8868 38.957 50.4998 39.654 50.4998C40.351 50.4998 40.695 50.8858 41.291 51.6268C41.9391 52.7836 43.1616 53.4999 44.4875 53.4999C45.8134 53.4999 47.0359 52.7836 47.684 51.6268C48.284 50.8868 48.625 50.4998 49.323 50.4998C50.021 50.4998 50.368 50.8868 50.966 51.6278C51.6148 52.7859 52.8386 53.503 54.166 53.503C55.4934 53.503 56.7172 52.7859 57.366 51.6278C57.956 50.8868 58.3 50.4998 59 50.4998C59.5523 50.4998 60 50.0521 60 49.4998C60 48.9475 59.5523 48.4998 59 48.4998Z" fill="#0F4654"/>
<path d="M59 54.4998C57.6894 54.5562 56.4914 55.257 55.8 56.3718C55.2 57.1128 54.859 57.4998 54.16 57.4998C53.461 57.4998 53.116 57.1128 52.519 56.3718C51.8706 55.2132 50.6467 54.4956 49.319 54.4956C47.9913 54.4956 46.7674 55.2132 46.119 56.3718C45.519 57.1118 45.178 57.4988 44.479 57.4988C43.78 57.4988 43.438 57.1118 42.841 56.3718C42.1933 55.2155 40.9714 54.4993 39.646 54.4993C38.3206 54.4993 37.0987 55.2155 36.451 56.3718C35.851 57.1118 35.512 57.4988 34.814 57.4988C34.116 57.4988 33.773 57.1118 33.176 56.3718C32.4872 55.2587 31.2927 54.5579 29.985 54.4998C28.6741 54.5562 27.4761 55.2575 26.785 56.3728C26.185 57.1138 25.846 57.4998 25.148 57.4998C24.45 57.4998 24.107 57.1128 23.51 56.3728C22.8205 55.2598 21.626 54.5588 20.318 54.4998C19.0092 54.5578 17.8136 55.2589 17.124 56.3728C16.524 57.1128 16.185 57.4998 15.487 57.4998C14.789 57.4998 14.448 57.1138 13.853 56.3728C13.1634 55.2589 11.9678 54.5578 10.659 54.4998C9.34988 54.5577 8.15395 55.2588 7.464 56.3728C6.864 57.1128 6.524 57.4998 5.827 57.4998C5.13 57.4998 4.788 57.1138 4.192 56.3728C3.50364 55.2586 2.30845 54.5573 1 54.4998C0.447715 54.4998 0 54.9475 0 55.4998C0 56.0521 0.447715 56.4998 1 56.4998C1.7 56.4998 2.038 56.8858 2.634 57.6258C3.32244 58.7406 4.51805 59.4423 5.827 59.4998C7.13807 59.4441 8.33644 58.7427 9.027 57.6268C9.627 56.8868 9.967 56.4998 10.664 56.4998C11.361 56.4998 11.703 56.8858 12.299 57.6268C12.9873 58.7391 14.1803 59.44 15.487 59.4998C16.7979 59.4434 17.9959 58.7422 18.687 57.6268C19.282 56.8858 19.626 56.4998 20.322 56.4998C21.018 56.4998 21.363 56.8868 21.961 57.6268C22.6502 58.7397 23.8443 59.4407 25.152 59.4998C26.4632 59.4445 27.6617 58.7429 28.352 57.6268C28.952 56.8868 29.293 56.4998 29.99 56.4998C30.687 56.4998 31.031 56.8858 31.627 57.6268C32.3163 58.7396 33.5104 59.4405 34.818 59.4998C36.1289 59.4434 37.3269 58.7422 38.018 57.6268C38.613 56.8868 38.957 56.4998 39.654 56.4998C40.351 56.4998 40.695 56.8858 41.291 57.6268C41.9391 58.7836 43.1616 59.4999 44.4875 59.4999C45.8134 59.4999 47.0359 58.7836 47.684 57.6268C48.284 56.8868 48.625 56.4998 49.323 56.4998C50.021 56.4998 50.368 56.8868 50.966 57.6278C51.6148 58.7859 52.8386 59.503 54.166 59.503C55.4934 59.503 56.7172 58.7859 57.366 57.6278C57.956 56.8868 58.3 56.4998 59 56.4998C59.5523 56.4998 60 56.0521 60 55.4998C60 54.9475 59.5523 54.4998 59 54.4998Z" fill="#0F4654"/>
<path d="M52 15.5C55.866 15.5 59 12.366 59 8.5C59 4.63401 55.866 1.5 52 1.5C48.134 1.5 45 4.63401 45 8.5C45 12.366 48.134 15.5 52 15.5Z" fill="#0F4654"/>
<path d="M51 19.5V21.5C51 22.0523 51.4477 22.5 52 22.5C52.5523 22.5 53 22.0523 53 21.5V19.5C53 18.9477 52.5523 18.5 52 18.5C51.4477 18.5 51 18.9477 51 19.5Z" fill="#0F4654"/>
<path d="M39 9.5H41C41.5523 9.5 42 9.05228 42 8.5C42 7.94772 41.5523 7.5 41 7.5H39C38.4477 7.5 38 7.94772 38 8.5C38 9.05228 38.4477 9.5 39 9.5Z" fill="#0F4654"/>
<path d="M57.0001 17.16C56.5219 17.4362 56.358 18.0477 56.6341 18.526L57.6341 20.258C57.8115 20.57 58.1424 20.763 58.5013 20.7638C58.8601 20.7645 59.1919 20.573 59.3706 20.2618C59.5493 19.9507 59.5476 19.5676 59.3661 19.258L58.3661 17.526C58.09 17.0477 57.4784 16.8839 57.0001 17.16Z" fill="#0F4654"/>
<path d="M40.2401 2.8659L41.9731 3.8659C42.2827 4.04738 42.6658 4.04908 42.9769 3.87035C43.2881 3.69162 43.4797 3.35986 43.4789 3.00102C43.4781 2.64217 43.2851 2.31126 42.9731 2.1339L41.2401 1.1339C40.9306 0.952414 40.5475 0.950715 40.2363 1.12945C39.9251 1.30818 39.7336 1.63994 39.7344 1.99878C39.7352 2.35763 39.9282 2.68854 40.2401 2.8659Z" fill="#0F4654"/>
<path d="M45.6334 17.5259L44.6334 19.2579C44.4519 19.5675 44.4502 19.9506 44.629 20.2617C44.8077 20.5729 45.1394 20.7644 45.4983 20.7637C45.8571 20.7629 46.1881 20.5699 46.3654 20.2579L47.3654 18.5259C47.6371 18.048 47.4722 17.4405 46.9961 17.1656C46.5201 16.8908 45.9114 17.0517 45.6334 17.5259Z" fill="#0F4654"/>
<path d="M41.9731 13.1339L40.2401 14.1339C39.9282 14.3113 39.7352 14.6422 39.7344 15.001C39.7336 15.3599 39.9251 15.6916 40.2363 15.8704C40.5475 16.0491 40.9306 16.0474 41.2401 15.8659L42.9731 14.8659C43.2851 14.6885 43.4781 14.3576 43.4789 13.9988C43.4797 13.6399 43.2881 13.3082 42.9769 13.1294C42.6658 12.9507 42.2827 12.9524 41.9731 13.1339Z" fill="#0F4654"/>
</g>
<defs>
<clipPath id="clip0_62_155">
<rect width="60" height="60" fill="white"/>
</clipPath>
</defs>
</svg>
